<?xml version="1.0" standalone="no"?>
<!DOCTYPE svg PUBLIC "-//W3C//DTD SVG 1.1//EN"
  "http://www.w3.org/Graphics/SVG/1.1/DTD/svg11.dtd">
<svg width="16.435202598571777mm" height="21.822682857513428mm" viewBox="-6.372780799865723 -28.365341186523438 16.435202598571777 21.822682857513428" xmlns="http://www.w3.org/2000/svg" version="1.1">
	<title>svgOutput</title>
	<desc>made with tinkercad</desc>
<path d="M -5.353459358215332 -15.957189559936523 L -5.363443374633789 -16.384000778198242 L -5.372780799865723 -16.78318977355957 L -5.341206073760986 -17.315872192382812 L -5.263322830200195 -17.9641170501709 L -5.244892120361328 -18.327951431274414 L -5.239621639251709 -18.43199920654297 L -5.21633768081665 -18.89163589477539 L -5.228880405426025 -19.17457389831543 L -5.240889549255371 -19.44547462463379 L -5.2503228187561035 -19.658262252807617 L -5.239546775817871 -19.98836326599121 L -5.237676620483398 -20.04564666748047 L -5.362994194030762 -20.28946304321289 L -5.355213642120361 -20.479999542236328 L -5.3547468185424805 -20.491430282592773 L -5.3288373947143555 -20.538347244262695 L -5.229581356048584 -20.718074798583984 L -4.871706008911133 -21.345155715942383 L -4.799817085266113 -21.4276180267334 L -4.755558013916016 -21.471595764160156 L -4.722945690155029 -21.503999710083008 L -4.694215297698975 -21.532546997070312 L -4.669766902923584 -21.62846565246582 L -4.637277126312256 -21.755929946899414 L -4.611824989318848 -21.855785369873047 L -4.539405822753906 -22.16250991821289 L -4.453112602233887 -22.527999877929688 L -4.434220314025879 -22.608015060424805 L -4.414967060089111 -22.644298553466797 L -4.370419502258301 -22.728246688842773 L -4.173463821411133 -23.04399871826172 L -4.168027877807617 -23.05271339416504 L -4.0960001945495605 -23.063796997070312 L -4.003725528717041 -23.0779972076416 L -3.9599215984344482 -23.08473777770996 L -3.865471363067627 -23.139806747436523 L -3.7815332412719727 -23.17733383178711 L -3.765862226486206 -23.178232192993164 L -3.7230873107910156 -23.180683135986328 L -3.4190406799316406 -23.19811248779297 L -3.3816094398498535 -23.20025634765625 L -3.1466972827911377 -23.321794509887695 L -3.1056644916534424 -23.34302520751953 L -3.105156898498535 -23.34328842163086 L -3.104766845703125 -23.345510482788086 L -3.10430645942688 -23.3532657623291 L -3.090768337249756 -23.455352783203125 L -3.086426019668579 -23.488100051879883 L -3.0779519081115723 -23.552000045776367 L -3.0539801120758057 -23.732769012451172 L -3.060056209564209 -23.776676177978516 L -3.0337164402008057 -23.78509521484375 L -3.027449369430542 -23.78860855102539 L -2.961474895477295 -23.825590133666992 L -2.9342973232269287 -23.840824127197266 L -2.951690435409546 -23.86894989013672 L -2.9223270416259766 -23.99907684326172 L -2.8993425369262695 -24.045093536376953 L -2.920103073120117 -24.08187484741211 L -2.9378585815429688 -24.19417953491211 L -3.0341532230377197 -24.283933639526367 L -3.092580795288086 -24.33839225769043 L -3.1445152759552 -24.386978149414062 L -3.309713363647461 -24.541522979736328 L -3.3312430381774902 -24.576000213623047 L -3.547759771347046 -24.922718048095703 L -3.6059768199920654 -25.036556243896484 L -3.664808988571167 -25.151596069335938 L -3.8203423023223877 -25.733491897583008 L -3.812030792236328 -26.106008529663086 L -3.6340560913085938 -26.624000549316406 L -3.599060297012329 -26.725854873657227 L -3.549048662185669 -26.87141227722168 L -3.5426058769226074 -26.89016342163086 L -3.500647783279419 -26.969430923461914 L -2.715909004211426 -27.233043670654297 L -2.5906262397766113 -27.30499267578125 L -2.3986802101135254 -27.346446990966797 L -2.0480000972747803 -27.313318252563477 L -2.02247953414917 -27.3109073638916 L -1.744207739830017 -27.268945693969727 L -1.660550594329834 -27.256330490112305 L -1.1480464935302734 -27.0169734954834 L -0.840867280960083 -26.887142181396484 L -0.5706216096878052 -26.693864822387695 L -0.48122072219848633 -26.624000549316406 L 0 -26.247936248779297 L 0.10472267866134644 -26.16609764099121 L 0.4020458459854126 -25.84522247314453 L 0.8235144019126892 -25.45751953125 L 1.1221656799316406 -25.203725814819336 L 1.287245512008667 -25.09173583984375 L 1.369577169418335 -25.0540771484375 L 1.3796195983886719 -25.049484252929688 L 1.4429277181625366 -24.992446899414062 L 1.5571390390396118 -24.931188583374023 L 1.5712984800338745 -24.865631103515625 L 1.5828264951705933 -24.812255859375 L 1.624228596687317 -24.620561599731445 L 1.6387888193130493 -24.576000213623047 L 1.686922311782837 -24.428686141967773 L 1.7610900402069092 -24.201696395874023 L 1.785588026046753 -24.180463790893555 L 1.7977086305618286 -24.169960021972656 L 1.797792911529541 -24.16988754272461 L 1.8359999656677246 -24.160396575927734 L 1.8724836111068726 -24.16571617126465 L 1.8850741386413574 -24.167552947998047 L 1.917102336883545 -24.19476318359375 L 1.9435878992080688 -24.312246322631836 L 2.0211539268493652 -24.576000213623047 L 2.0449159145355225 -24.65679931640625 L 2.0480000972747803 -24.701019287109375 L 2.0510618686676025 -24.744918823242188 L 2.0858445167541504 -24.9079532623291 L 2.127471685409546 -24.937519073486328 L 2.3244614601135254 -25.077436447143555 L 2.4328064918518066 -25.124000549316406 L 2.439260959625244 -25.139129638671875 L 2.482419013977051 -25.18189811706543 L 2.644473075866699 -25.342487335205078 L 2.7143137454986572 -25.39510154724121 L 2.942721128463745 -25.56716537475586 L 3.5615503787994385 -26.173486709594727 L 3.564307928085327 -26.175390243530273 L 3.5898518562316895 -26.195423126220703 L 4.0960001945495605 -26.577960968017578 L 4.156914234161377 -26.624000549316406 L 4.426881790161133 -26.82803726196289 L 4.507425308227539 -26.884693145751953 L 4.735767364501953 -26.988473892211914 L 5.314239978790283 -27.24582290649414 L 5.336776256561279 -27.255847930908203 L 5.609573841094971 -27.292722702026367 L 6.064239501953125 -27.364925384521484 L 6.06685733795166 -27.365341186523438 L 6.140169620513916 -27.352479934692383 L 6.144000053405762 -27.351852416992188 L 6.685154914855957 -27.26314926147461 L 6.68679666519165 -27.261747360229492 L 6.8000264167785645 -27.178020477294922 L 7.084488868713379 -26.967679977416992 L 7.185389041900635 -26.893070220947266 L 7.308537006378174 -26.730863571166992 L 7.317518711090088 -26.71903419494629 L 7.3472900390625 -26.624000549316406 L 7.53512716293335 -26.024404525756836 L 7.5455322265625 -25.921478271484375 L 7.543668270111084 -25.914403915405273 L 7.487633228302002 -25.701763153076172 L 7.355501651763916 -25.175296783447266 L 7.343928813934326 -25.15643310546875 L 7.3379669189453125 -25.14671516418457 L 7.077328681945801 -24.721887588500977 L 7.044579029083252 -24.668798446655273 L 7.0434489250183105 -24.66696548461914 L 6.987334251403809 -24.576000213623047 L 6.971310615539551 -24.550024032592773 L 6.657938480377197 -24.22353172302246 L 6.612192630767822 -24.136072158813477 L 6.61224889755249 -24.10051918029785 L 6.612396717071533 -24.00693130493164 L 6.577892780303955 -23.944747924804688 L 6.585837364196777 -23.929733276367188 L 6.587610244750977 -23.928014755249023 L 6.612559795379639 -23.90383529663086 L 6.681649684906006 -23.83687400817871 L 6.695987701416016 -23.816930770874023 L 6.712287902832031 -23.794260025024414 L 6.727940082550049 -23.772489547729492 L 6.736074447631836 -23.754680633544922 L 6.7267889976501465 -23.552000045776367 L 6.722434997558594 -23.456960678100586 L 6.72260046005249 -23.451730728149414 L 6.7227702140808105 -23.446369171142578 L 7.01200008392334 -23.24887466430664 L 7.0243449211120605 -23.238563537597656 L 7.051447868347168 -23.228330612182617 L 7.069972038269043 -23.224966049194336 L 7.168000221252441 -23.20716094970703 L 7.2685747146606445 -23.188892364501953 L 7.319499969482422 -23.179641723632812 L 7.447890281677246 -23.10414695739746 L 7.550468921661377 -23.090167999267578 L 7.664720058441162 -23.074600219726562 L 7.887075424194336 -23.059537887573242 L 7.896790027618408 -23.04297637939453 L 7.962996482849121 -22.930110931396484 L 8.037277221679688 -22.8405818939209 L 8.096914291381836 -22.584537506103516 L 8.097933769226074 -22.580162048339844 L 8.109776496887207 -22.527999877929688 L 8.181882858276367 -22.210420608520508 L 8.192000389099121 -22.173044204711914 L 8.2837553024292 -21.834075927734375 L 8.379899978637695 -21.478891372680664 L 8.55918025970459 -21.17728614807129 L 8.607709884643555 -21.095645904541016 L 8.810555458068848 -20.814851760864258 L 8.919658660888672 -20.663822174072266 L 8.926655769348145 -20.64111328125 L 8.958566665649414 -20.537540435791016 L 8.964462280273438 -20.479999542236328 L 8.98587417602539 -20.27103614807129 L 8.957387924194336 -20.17603302001953 L 8.887068748474121 -19.941505432128906 L 8.884381294250488 -19.92551040649414 L 8.875988960266113 -19.875545501708984 L 8.863044738769531 -19.215049743652344 L 8.863341331481934 -18.937360763549805 L 8.864371299743652 -18.83385467529297 L 8.86495590209961 -18.77517318725586 L 8.880770683288574 -18.43199920654297 L 8.884900093078613 -18.342411041259766 L 8.975624084472656 -17.253931045532227 L 9.04813289642334 -16.384000778198242 L 9.062421798706055 -16.212574005126953 L 9.059292793273926 -16.174592971801758 L 9.01911735534668 -15.68687915802002 L 8.397533416748047 -13.319987297058105 L 8.39570426940918 -13.311606407165527 L 8.38443374633789 -13.259953498840332 L 8.356576919555664 -13.183403968811035 L 8.327167510986328 -13.086228370666504 L 8.311269760131836 -13.0589017868042 L 8.192000389099121 -12.853888511657715 L 7.940729141235352 -12.421978950500488 L 7.917275905609131 -12.37430477142334 L 7.874817848205566 -12.288000106811523 L 7.730644702911377 -11.994937896728516 L 7.654658794403076 -11.906935691833496 L 7.619977951049805 -11.870638847351074 L 6.9734673500061035 -11.194003105163574 L 6.826309680938721 -11.03998851776123 L 6.730103492736816 -10.914292335510254 L 6.722232818603516 -10.905245780944824 L 6.342079162597656 -10.468315124511719 L 6.196333408355713 -10.299047470092773 L 6.143905162811279 -10.254222869873047 L 6.036221981048584 -10.162156105041504 L 5.940460681915283 -10.060588836669922 L 5.908268928527832 -10.026444435119629 L 5.677521228790283 -9.74950122833252 L 5.571744441986084 -9.62254810333252 L 5.485205173492432 -9.518683433532715 L 5.258673191070557 -9.203453063964844 L 4.823957443237305 -8.687445640563965 L 4.666150093078613 -8.535653114318848 L 4.373687267303467 -8.2543363571167 L 4.261580944061279 -8.192000389099121 L 4.140775680541992 -8.124826431274414 L 4.0960001945495605 -8.099928855895996 L 3.817633628845215 -7.945144176483154 L 3.704922676086426 -7.886662483215332 L 3.374509811401367 -7.71522331237793 L 3.0982253551483154 -7.647287368774414 L 3.0601143836975098 -7.637916088104248 L 2.7257497310638428 -7.58234167098999 L 2.7070860862731934 -7.582589626312256 L 2.1308915615081787 -7.590241432189941 L 1.955311894416809 -7.557176113128662 L 1.3070443868637085 -7.545840263366699 L 1.2601019144058228 -7.545019149780273 L 1.125098466873169 -7.54265832901001 L 0.48677942156791687 -7.705853462219238 L 0 -7.807093143463135 L -0.02670777030289173 -7.812647819519043 L -0.05730098858475685 -7.831425666809082 L -0.20496678352355957 -7.922061920166016 L -0.21223223209381104 -7.9265217781066895 L -0.6166775226593018 -8.192000389099121 L -0.7248045206069946 -8.262974739074707 L -1.391765832901001 -9.012033462524414 L -1.4135223627090454 -9.037506103515625 L -1.4161967039108276 -9.04194164276123 L -1.4220690727233887 -9.051681518554688 L -1.4481902122497559 -9.084725379943848 L -1.7757972478866577 -9.4786376953125 L -2.196455478668213 -9.984434127807617 L -2.370284080505371 -10.116400718688965 L -3.3130202293395996 -11.221583366394043 L -3.3893065452575684 -11.29035758972168 L -3.4835727214813232 -11.375341415405273 L -3.5320000648498535 -11.418999671936035 L -3.64605975151062 -11.541278839111328 L -3.8011927604675293 -11.687877655029297 L -3.9154880046844482 -11.795886039733887 L -3.9597525596618652 -11.837716102600098 L -4.0960001945495605 -12.044182777404785 L -4.119167327880859 -12.079289436340332 L -4.2379655838012695 -12.283339500427246 L -4.2406792640686035 -12.288000106811523 L -4.252195358276367 -12.307780265808105 L -4.280758380889893 -12.356841087341309 L -4.4068217277526855 -12.602642059326172 L -5.014087200164795 -14.035784721374512 L -5.051060199737549 -14.125879287719727 L -5.051306247711182 -14.126663208007812 L -5.0715131759643555 -14.191040992736816 L -5.182363986968994 -14.683616638183594 L -5.269679069519043 -15.333559036254883 L -5.353459358215332 -15.957189559936523 z" fill="none" stroke="rgb(255,0,0)" stroke-width="0.001mm" />
</svg>