<?xml version="1.0" encoding="utf-8"?>
<!-- Generator: Adobe Illustrator 23.1.0, SVG Export Plug-In . SVG Version: 6.00 Build 0)  -->
<svg version="1.2" baseProfile="tiny" id="圖層_1"
	 xmlns="http://www.w3.org/2000/svg" xmlns:xlink="http://www.w3.org/1999/xlink" x="0px" y="0px" viewBox="0 0 595.28 841.89"
	 xml:space="preserve">
<g>
	<path fill="#FEFEFE" d="M295.74,525.66c-59.78,0-119.56-0.01-179.33,0.05c-2.41,0-3.27-0.22-3.27-3.08
		c0.1-119.69,0.09-239.37,0.04-359.06c0-2.41,0.22-3.27,3.08-3.27c119.68,0.1,239.35,0.09,359.03,0.04c2.41,0,3.27,0.22,3.27,3.08
		c-0.1,119.69-0.1,239.37,0,359.06c0,2.96-0.92,3.25-3.47,3.24C415.3,525.65,355.52,525.66,295.74,525.66z"/>
	<path fill="#EAEAEA" d="M355.79,415.34c4.05,2.02,7.34,5.1,10.92,7.79c0.95,0.71,1.45,1.83,0.51,2.85
		c-4.07,4.41-7.59,9.79-14.98,8.37c-1.83-0.35-3.77-0.6-4.98-1.96c-4.59-5.14-9.14-10.34-12.71-16.29c0.64-1.48,2-1.66,3.33-1.68
		C343.86,414.33,349.88,413.69,355.79,415.34z"/>
	<path fill="#D6D6D6" d="M355.79,415.34c-5.46,1.5-11.03,0.42-16.54,0.73c-1.56,0.09-3.13,0.02-4.7,0.03
		c-1.82-1.56-3.58-3.13-6.26-3.07c-1.76,0.04-2.35-1.38-2.68-2.88c-0.71-3.3-1.84-6.44-3.46-9.41c2.71-2.94,5.8-1.31,8.81-0.75
		C340.55,402.97,348.2,409.12,355.79,415.34z"/>
	<path fill="#010101" d="M282.06,358.37c0-0.7,0-1.41,0-3.12c2.81,5.49,6.12,8.94,11.85,9.02c2.09,0.03,0.8,1.81,1.1,2.77
		c1.59,5.65,0.45,11.18-0.76,16.7c-0.25,1.48-0.57,2.95-0.74,4.45c-0.18,6-0.96,11.95-1.67,17.9c-0.2,1.73-0.24,3.63-2.89,2.43
		c-0.67-0.66-0.72-1.53-0.84-2.38c-0.99-6.14-1.87-12.31-2.87-18.45c-1.06-5.27-1.39-10.64-2.26-15.94
		C282.57,367.29,280.82,362.93,282.06,358.37z"/>
	<path fill="#010101" d="M296.67,366.31c0.13-0.83-0.56-2.23,1.06-2.16c5.86,0.26,8.91-3.47,11.74-8.56c0.1,1.34,0.15,2.06,0.2,2.78
		c1.26,4.73-0.59,9.24-0.98,13.85c-0.2,2.19-0.77,4.32-0.84,6.53c-0.48,2.52-0.92,5.04-1.3,7.58c-0.43,3.19-0.85,6.37-1.36,9.55
		c-0.71,3.38-0.29,7.07-2.66,10.01c-0.09,0.44-0.18,0.87-0.26,1.31c-0.81,0.49-0.93-0.2-1.18-0.68c-0.57-5.08-1.13-10.16-1.7-15.25
		c-1.87-2.18-1.6-4.92-1.92-7.5c-0.18-1.43-0.49-2.83-0.85-4.23C295.37,375.13,295.97,370.72,296.67,366.31z"/>
	<path fill="#010101" d="M280.5,357.63c0.24,0.25,0.49,0.49,0.73,0.74c1.65,4.73,1.47,9.78,2.62,14.6c0.76,4.88,1.3,9.78,2.14,14.65
		c0.9,6.28,1.84,12.56,2.8,18.84c0.06,1.01,0.42,1.98,0.46,3c-0.32,0.65-0.21,1.72-1.44,1.51c-2.26-4.12-4.52-8.24-6.78-12.35
		c-0.56-0.75-1.64-0.55-2.24-1.22c-0.63-1.1-1.44-2.06-2.31-2.98c-3.61-4.56-3.03-9.65-1.94-14.84c0.68-3.21,1.29-6.43,1.97-9.64
		c0.74-2.87,1.18-5.81,1.96-8.67C278.84,359.88,279.22,358.51,280.5,357.63z"/>
	<path fill="#010101" d="M310.64,398.61c-2.32,4.05-4.64,8.11-7.39,12.9c0-2.2,0-3.48,0-4.75c-0.29-3.24,0.71-6.34,1.04-9.52
		c0.54-3.15,0.89-6.33,1.43-9.47c0.33-2.76,0.92-5.49,1.18-8.26c0.66-2.14,0.46-4.42,1.06-6.57c0.87-4.85,1.03-9.81,2.5-14.55l0,0
		c1.99-0.17,2.26,1.36,2.71,2.73c0.93,2.87,1.39,5.85,2.01,8.79c1.32,5.48,2.12,11.06,3,16.62c0.49,3.08-1.94,5.29-2.98,7.91
		c-0.65,0.85-1.56,1.5-2.05,2.49C312.43,397.65,311.36,397.86,310.64,398.61z"/>
	<path fill="#EDEDED" d="M252.75,421.93c-2.32,4-5.31,7.52-8.44,10.84c-4.27,4.53-10.64,4-14.56-0.81
		c-0.99-1.22-1.98-2.44-3.06-3.57c-3.46-3.62-3.42-4.38,0.57-7.25c0.69-0.49,1.4-0.95,2.1-1.43c6.39,1.4,12.85,1.32,19.33,0.89
		C250.24,420.51,251.86,420.05,252.75,421.93z"/>
	<path fill="#E0E0E0" d="M252.75,421.93c-6.74,0.89-13.48,1.2-20.23,0.12c-1.49-0.24-2.94-0.43-3.16-2.34
		c4.63-3.41,9.25-6.83,13.88-10.24c3.32,0.95,6.71,0.29,10.07,0.37c3.14,0.08,6.27,0.28,9.41,0.35c1.34,0.03,2.32,0.5,3.14,1.48
		c-0.16,0.18-0.31,0.51-0.48,0.52C258.92,412.54,256.39,417.96,252.75,421.93z"/>
	<path fill="#ECECEC" d="M309.74,327.92c0.27,0.18,0.54,0.37,0.82,0.55c0.48,1.17-0.31,1.79-1.05,2.44
		c-1.13,0.99-1.32,2.26-1.11,3.65c0.12,1.31,0.14,2.62-0.06,3.93c-0.23,1.02-0.53,1.98-1.66,2.36c-0.24,0.31-0.48,0.62-0.73,0.93
		c-1.29-0.04-1.42-0.88-1.4-1.91c0.03-1.14,0.32-2.33-0.45-3.37c-0.28-0.01-0.55-0.02-0.83-0.03c-1.77-0.64-1.27-2.11-1.15-3.35
		c0.3-2.88,1.14-5.63,2.23-8.31c0.35-0.86,1.14-1.96,0.39-2.68c-0.96-0.94-1.96,0.24-2.92,0.6c-1.64,0.6-2.72,1.91-3.78,3.21
		c-1.19,0.48-1.68,1.91-3,2.2c-0.58,0.02-1.06-0.19-1.46-0.59c-1.43-2.71-3.15-5.06-7.01-5.48c0.9,5.04,3.97,9.49,3.01,14.66
		c-0.19,0.48-0.5,0.88-0.89,1.21c-1.58,0.83-0.46,3.73-2.95,3.87c-0.25-0.32-0.49-0.63-0.74-0.95c-1.52-0.56-1.84-1.93-1.66-3.2
		c0.41-2.97,0.31-5.68-2.15-7.83c-0.35-0.31-0.24-0.89-0.06-1.35c0.27-0.18,0.54-0.36,0.81-0.55c-0.29-1.31-1.13-2.06-2.39-2.41
		c-0.28,0.02-0.57,0.04-0.85,0.06c-0.47-0.15-0.68-0.39-0.26-0.82c0.43-0.7,0.87-1.4,1.3-2.1c0.48-0.57,2.09-0.57,0.78-2.02
		c-0.86-0.96-2.32-0.78-2.97-1.92c-0.76-0.19-1.52-0.37-2.28-0.56c-1.32-1.72-0.3-3.42,0.06-5.12c0.36-0.52,0.81-0.87,1.49-0.67
		c0.2,0.24,0.4,0.47,0.61,0.71c2.34-0.38,0.35-2.83,1.75-3.65c0.21-0.27,0.42-0.54,0.63-0.81c3.99,1.07,4.96,0.53,7.98-4.43
		c-0.31-0.24-0.63-0.48-0.94-0.72c0.36-0.91,0.85-1.34,1.7-0.47c1.03,0.48,2.05,0.95,3.08,1.43c-0.27,2.7-1.55,4.83-3.41,6.79
		c-2.71,2.85-1.99,5.08,1.81,6.42c1.34,0.47,2.15,0.38,2.1-1.28c-0.05-1.63,0.5-2.85,2.19-3.33c2.14-0.31,1.18-2.1,1.58-3.25
		c0.62-1.79-0.5-4.61,2.8-4.85c0.22,0.28,0.44,0.56,0.66,0.84c1.62,0.6,1.49,1.86,1.39,3.27c-0.21,2.95-1.36,5.81-1.01,8.87
		c5.67-1.19,6.42-2.97,3.26-7.31c-0.76-1.05-1.9-2.06-0.38-3.37c0.16-0.19,0.33-0.39,0.49-0.58c3.86-0.59,4.41,3.01,6.36,4.52
		c0.37-1.78,0.37-1.78,2.4-2.55c0.21,0.27,0.42,0.54,0.63,0.81c0.99,2.64-0.54,6.03,2.43,8.07c0.23-0.29,0.47-0.59,0.7-0.88
		c1.07,0.11,1.16,0.7,0.77,1.54c-0.76,0.19-1.51,0.38-2.27,0.56c-0.52,1.07-1.82,0.83-2.59,1.56c-1.19,1.11-0.53,1.72,0.4,2.37
		c0.02,0.35,0.04,0.7,0.06,1.05C311.71,325.35,310.17,326.34,309.74,327.92z"/>
	<path fill="#D6D6D6" d="M265.85,411.68c-6.6,0.73-13.2-0.33-19.8-0.03c-1.5,0.07-2.57-0.55-2.82-2.18
		c4.62-3.01,8.6-7.06,14.42-8.08c1.64-0.28,3.04-1.89,4.56-2.9c2.65,0.46,5.75-1.57,7.93,1.45
		C267.83,403.55,266.45,407.47,265.85,411.68z"/>
	<path fill="#C8C8C8" d="M313.29,394.11c4.68-5.66,3.62-11.85,1.75-18.16c-0.55-1.85-0.73-3.81-1.08-5.72
		c-0.17-1-0.75-2.14,0.81-2.6c3.8,2.66,2.97,6.88,3.53,10.61c0.24,1.63-0.43,3.33,0.18,4.97c-0.32,1.36,0.54,2.19,1.27,3.17
		c3.5,4.74,7.16,9.33,11.21,13.62c-2.85,1.25-5.82,1.13-8.81,0.75c-0.8-1.08-1.64-2.34-3.19-1.57c-2.93,1.46-5.6,0.36-8.32-0.56
		c0.43-0.74,0.86-1.48,1.29-2.22C314.73,397.03,312.9,394.91,313.29,394.11z"/>
	<path fill="#C7C7C7" d="M270.14,399.96c-2.65-0.43-5.69,1.27-7.93-1.45c3.14-3.93,6.26-7.86,9.42-11.78
		c0.84-1.05,1.58-2.11,1.57-3.52c0.52-3.96-0.19-8.04,1.17-11.93c0.52-1.48,0.75-3.09,2.55-3.65c1.58,0.47,0.96,1.63,0.83,2.64
		c-0.77,3.68-1.31,7.44-2.37,11.04c-1.07,3.66-0.76,6.86,1.53,9.93c0.64,0.85,0.97,1.94,1.44,2.92c0.2,1.11-0.94,3,1.6,2.72
		c0.36,0.58,0.72,1.17,1.08,1.75c-2.74,0.96-5.45,2.04-8.36,0.52C271.64,398.59,270.82,399.19,270.14,399.96z"/>
	<path fill="#010101" d="M318.49,383.2c-2.17-4.85-2.36-10.2-3.79-15.24c-2.05-3.7-2.28-7.81-2.65-11.89
		c0.46-0.76,0.46-0.76,2.07,0.1c3.28,1.26,6.19,2.92,7.26,6.61c2.37,1.75,2.71,3.76,1.61,6.58
		C321.22,373.88,319.96,378.58,318.49,383.2z"/>
	<path fill="#010101" d="M276.99,367.95c-1.44,5.04-1.63,10.4-3.79,15.26c-1.47-4.63-2.73-9.34-4.5-13.85
		c-1.11-2.83-0.76-4.83,1.65-6.55c1.12-3.62,4.29-4.97,7.23-6.59c1.57-0.91,1.57-0.91,2.06-0.15
		C279.24,360.14,279.11,364.27,276.99,367.95z"/>
	<path fill="#8A8A8A" d="M346.34,333.65c7.38-5.14,14.76-10.27,22.14-15.42c1.26-0.88,2.35-1.66,3.6,0.21
		c1.18,1.76,0.4,2.58-0.98,3.49c-9.82,6.51-19.26,13.58-29.32,19.73c-1.74,1.07-3.35,2.36-5.02,3.55c-1.42,0.32-2.02-0.41-2.17-1.7
		c0.06-0.36,0.2-0.68,0.42-0.96c2.52-1.8,5.13-3.47,7.64-5.3c1.22-0.87,2.5-1.64,3.77-2.41c0.31-0.11,0.62-0.21,0.94-0.27
		c0.47-0.19,0.86-0.48,1.23-0.82c-0.44,0.4-0.9,0.76-1.51,0.84C346.48,334.55,346.16,334.29,346.34,333.65z"/>
	<path fill="#020202" d="M296.65,324.8c-0.08-0.63-0.05-1.23,0.6-1.57c3.71-1.94,7.43-3.86,11.81-6.13
		c-2.17,6.94-5.26,12.79-5.78,19.37c-0.33,1.39-0.67,2.78-1,4.17c-2.26,0.15-2.91-1.66-3.8-3.16c-0.16-0.31-0.29-0.64-0.39-0.98
		c-0.18-3.01-1.9-5.7-1.91-8.75C295.89,326.69,296.57,325.79,296.65,324.8z"/>
	<path fill="#474747" d="M316.95,270.81c-2.63-0.88-5.31-0.17-7.96-0.17c-11.41,0-22.83,0.11-34.24,0.18
		c-0.49-0.12-0.69-0.67-1.17-0.81c-3.98-0.07-7.96-0.14-11.93-0.2c-0.2-0.06-0.4-0.13-0.6-0.19c0.2-0.07,0.39-0.13,0.59-0.2
		c22.8-1.2,45.6-1.38,68.4,0c0.2,0.06,0.4,0.13,0.6,0.19c-0.2,0.07-0.4,0.13-0.59,0.2c-4.07,0.58-8.22,0-12.26,0.93
		C317.5,270.78,317.23,270.8,316.95,270.81z"/>
	<path fill="#020202" d="M288.36,336.49c-0.66-6.54-3.56-12.43-5.84-19.35c4.11,2.16,7.55,4.01,11.03,5.77
		c2.02,1.02,0.57,2.51,0.65,3.8c0.13,3.91-0.18,7.68-3.34,10.55c-0.53,1.17-0.49,2.59-1.51,3.55
		C287.43,339.73,287.47,338.21,288.36,336.49z"/>
	<path fill="#020202" d="M296.65,324.8c0.56,0.65,0.29,1.4,0.25,2.12c1.64,3.01,2.23,6.38,3.34,9.58l-0.04-0.09
		c0.51,1.71,1.05,3.42,1.45,5.16c0.25,1.32,0.32,2.41-1.63,2.2c-1.56-0.17-3.15-0.09-4.73-0.14c-4.94-0.15-4.94-0.16-3.81-4.96
		c0.66-3.84,1.32-7.68,3.51-11.02C295.39,326.6,295.44,325.36,296.65,324.8z"/>
	<path fill="#030303" d="M290.36,344.79c3.39,0,6.65,0.02,9.92-0.01c1.87-0.02,1.86,0.99,1.45,2.37c-0.55,1.86-1.25,3.72-1.48,5.62
		c-0.39,3.12-2.11,3.75-4.96,3.78c-3.23,0.03-3.31-2.29-3.77-4.27C290.96,349.83,290.73,347.3,290.36,344.79z"/>
	<path fill="#030303" d="M294.37,313.49c-1.65,2.69,0.97,5.34-0.04,8.35c-3.54-1.87-7.03-3.75-10.56-5.54
		c-1.59-0.81-0.98-1.57-0.18-2.49c2.7-3.12,5.37-6.27,8.04-9.4c0.23,0.45,0.47,0.89,0.7,1.34c1.99,1.63,1.78,4.23,2.75,6.31
		C295.07,312.65,294.88,313.15,294.37,313.49z"/>
	<path fill="#888888" d="M254.15,344.66c-11.34-7.69-22.66-15.4-34.02-23.07c-1.55-1.05-1.25-2.01-0.4-3.32
		c0.93-1.44,1.87-1.23,2.99-0.35c0.48,0.37,0.98,0.72,1.47,1.07c0.2,0.18,0.24,0.39,0.16,0.6c0.06,0.15,0.13,0.3,0.28,0.44
		c0.5,0.53,1.06,0.93,1.65,1.3c2.65,2.55,5.93,4.2,8.9,6.29c0.31,0.14,0.6,0.32,0.87,0.53c5.25,4.12,11.06,7.43,16.34,11.49
		c1.24,0.96,3.28,1.37,3.26,3.55C255.45,344.01,254.98,344.52,254.15,344.66z"/>
	<path fill="#030303" d="M302.62,307.21c1.84,2.23,3.65,4.49,5.54,6.68c0.9,1.04,1.1,1.74-0.34,2.47
		c-3.51,1.77-6.97,3.63-10.96,5.72c0.9-5.87,1.7-11.09,2.5-16.32C301.45,304.01,301.4,307.02,302.62,307.21z"/>
	<path fill="#020202" d="M298.63,392.94c0.56,5.89,0.75,11.84,1.79,17.64c0.71,3.94-0.21,6.74-3.13,9.15
		c-2.41-0.36-1.78-2.32-1.78-3.72c-0.03-11.78-0.14-23.56,0.03-35.34c0.35-0.95,0.31-2.52,2.04-1.3
		C298.02,383.89,298.83,388.38,298.63,392.94z"/>
	<path fill="#040404" d="M294.38,419.75c-1.32-2.05-4.27-3.19-3.55-6.37c0.11-7.86,1.47-15.6,2.09-23.41
		c0.02-1.08-0.05-2.16,0.12-3.23c0.71-1.4,0.46-2.97,0.79-4.43c0.19-0.83,0.43-1.99,1.72-0.88c0.66,9.06,0.13,18.13,0.29,27.2
		c0.05,2.78,0.06,5.57-0.02,8.35C295.78,418.06,296.21,419.52,294.38,419.75z"/>
	<path fill="#9B9B9B" d="M254.15,344.66c0.28-0.59,0.57-1.18,0.85-1.77c1.68-1.34,2.56,0.64,3.84,0.94
		c4.78,4.08,10.68,6.65,15.12,11.18c0.38,0.03-0.12,1.56,0.91,0.52c0.79-0.8,1.67-0.77,2.58-0.19c0.04,0.3,0.08,0.6,0.12,0.89
		c-2.02,2.62-4.68,4.55-7.23,6.59c-1.98-2.45-4.04-4.85-4.01-8.3c0.01-1.42-1.2-1.99-2.18-2.69
		C260.82,349.45,257.49,347.05,254.15,344.66z"/>
	<path fill="#9B9B9B" d="M335.3,343.15c0.2,0.89,0.7,1.58,1.46,2.08c-1.65,1.23-3.29,2.48-4.96,3.68c-3.26,2.35-7.26,3.95-7.22,9.13
		c0.01,1.86-2.03,3.22-3.21,4.75c-2.46-2.16-5.22-3.99-7.26-6.61c0.04-0.28,0.07-0.56,0.11-0.84c0.97-1.28,2.37,0.87,3.34-0.45
		c3.92-3.68,8.81-6,12.93-9.38C332.07,344.69,333.05,342.63,335.3,343.15z"/>
	<path fill="#020202" d="M281.13,328.46c4.42,0.74,5.2,3.49,4.28,7.4c-0.38,1.6-0.29,3.32-0.41,4.99c-0.31,0.35-0.23,1.7-0.83,1.03
		c-2.95-3.29-7.24-5.61-7.44-10.94c-0.1-2.65-0.11-4.07,2.98-2.63C280.12,328.48,280.66,328.41,281.13,328.46z"/>
	<path fill="#020202" d="M306.22,334.23c-1.48-4.12,1.59-4.82,4.33-5.77c5.01-0.89,5.12-0.87,4.11,4.25
		c-0.82,4.18-4.49,6.34-7.17,9.16c-0.63,0.66-0.51-0.68-0.83-1.03c0.01-0.93,0.02-1.87,0.02-2.8
		C306.1,336.83,306.74,335.46,306.22,334.23z"/>
	<path fill="#0A0A0A" d="M333.16,310.02c0.79,0.55,1.59,1.1,2.87,1.98c-5.17,1.43-10.03,2.18-15.6,2.99c2-3.53,1.55-7.44,4.58-9.92
		C328.49,305.46,331.28,306.99,333.16,310.02z"/>
	<path fill="#040404" d="M260.03,313.19c-1.32-0.34-2.64-0.67-4.37-1.11c1.19-0.85,2.03-1.45,2.87-2.05
		c1.87-3.04,4.66-4.57,8.14-4.95c0.97-0.04,1.27,0.67,1.57,1.39c2.75,1.78,2.9,4.78,3.4,7.55c0.19,1.08-0.64,1.83-1.79,1.73
		C266.44,315.46,262.84,315.79,260.03,313.19z"/>
	<path fill="#E7E7E7" d="M267.41,296.08c-0.2,2.78-1.4,3.45-3.72,1.77c-1.77-2.02-4.1-3.05-6.62-3.74
		c-0.41,0.35-0.71,0.94-1.41,0.68c-2.25-3.17-5.54-4.42-9.2-4.98c-0.57-0.31-1.14-0.61-1.7-0.92c1-1.01,1.96-2.01-0.17-2.82
		c-0.23,0.53-0.46,1.07-0.69,1.6c-2.09-1.01-1.95-2.33-0.52-3.82c0.68-0.17,1.36-0.33,2.05-0.5c0.24-0.82,0.93-0.88,1.61-0.97
		c0.68-0.44,1.37-0.66,2.07-0.04c1.2,2.48,3.55,3.6,5.76,4.87c0.18,0.17,0.25,0.36,0.23,0.56c-0.03,0.21-0.06,0.31-0.11,0.31
		c0,0.33,0,0.66,0.01,1c2.96,1.1,5.9,2.24,8.14,4.61c0.4,0.42,0.8,0.96,1.46,0.36c0.18-0.19,0.36-0.38,0.54-0.57
		C267.51,292.91,267.74,294.25,267.41,296.08z"/>
	<path fill="#9E9E9E" d="M225.36,321.83c-0.58-0.47-1.16-0.93-1.74-1.4c-0.54-0.2-0.57-0.46-0.09-0.78
		c0.22-0.22,0.44-0.43,0.67-0.65c15.98,10.97,31.96,21.95,47.92,32.94c0.58,0.4,1.01,1.03,1.51,1.55c-0.68,0.53-1.36,0.42-1.98-0.05
		c-3.99-3.06-8.47-5.4-12.38-8.58c-8.13-5.33-16.01-11.03-24.09-16.43l0.03,0.02C232.03,326.1,228.75,323.88,225.36,321.83z"/>
	<path fill="#030303" d="M257.79,309.38c-1.19,0.2-1.94,1.48-3.27,1.33c-0.09-0.24-0.25-0.46-0.23-0.66
		c0.77-11.03,1.31-11.3,11.54-5.84C263.92,307.14,260.75,308.1,257.79,309.38z"/>
	<path fill="#050505" d="M337.34,308.17c0,0.81,0,1.62,0,2.5c-1.48,0.33-2.23-1.13-3.45-1.28c-2.97-1.26-6.12-2.26-8.04-5.16
		c2.64-1.69,5.7-2.43,8.53-3.68c0.98-0.43,1.59-0.35,1.79,0.8C338.17,303.34,337.72,305.76,337.34,308.17z"/>
	<path fill="#060606" d="M221.49,244.49c-0.31,0.61,0.1,1.5-0.72,1.93c-2.59-8.68-1.22-16.38,4.6-24.17
		c-0.72,4.57-1.34,8.53-1.97,12.49C223.33,238.1,224.5,241.71,221.49,244.49z"/>
	<path fill="#090909" d="M368.25,234.75c-0.62-3.94-1.25-7.89-1.87-11.83c2.44,3.92,6.36,7.1,5.55,12.54
		c-0.43,2.86-0.18,5.82-0.24,8.74c-0.57,0.7,0.31,2.19-1,2.34c-1.24,0.14-1.29-1.15-1.57-2.01
		C368.05,241.34,368.03,238.06,368.25,234.75z"/>
	<path fill="#D1D1D1" d="M294.38,419.75c0.87-0.38,0.72-1.18,0.72-1.87c-0.02-12.27-0.06-24.54-0.1-36.81
		c0.3-0.71,0.72-1.16,1.56-0.78c0,11.91-0.02,23.83,0.04,35.74c0.01,1.23-0.66,2.69,0.7,3.7
		C296.33,420.54,295.36,420.55,294.38,419.75z"/>
	<path fill="#EBEBEB" d="M260.03,313.19c3.44,0.55,6.87,1.1,10.83,1.73c-0.95-3.07-1.78-5.76-2.61-8.46
		c0.65-0.41,1.3-0.75,2.05-0.22c0.38,1.55,0.84,2.96,2.88,1.73c0.48,0.24,0.97,0.47,1.45,0.71c0.63,0.59,0.32,1.73,1.24,2.15
		c0.32,0.51,0.64,1.02,0.96,1.52c-0.23,0.18-0.45,0.37-0.68,0.55c-1.46,1.45-1.49,3.3-1.47,5.17c-0.27,0.52-0.54,1.04-0.81,1.56
		c-1.01-1.25-1.81,0.38-2.75,0.2c-0.22-0.3-0.43-0.6-0.65-0.89c-1.73,0.41-3.44,0.89-5.24,0.85c-0.05-0.38-0.1-0.77-0.15-1.15
		c-0.38-1.75-1.95-1.76-3.21-2.26c-1.2-0.48-3-0.35-2.77-2.46C259.41,313.68,259.72,313.43,260.03,313.19z"/>
	<path fill="#181818" d="M274.61,256.73c2.25-6,4.95-11.89,6.03-18.24c0.44-2.56,0-5.21,3.65-6.58c-1.78,9.43-4.35,18.22-8.86,26.39
		C274.12,258.33,274.18,257.63,274.61,256.73z"/>
	<path fill="#080808" d="M311.87,308.6c-0.55,1.68-1.1,3.36-1.8,5.5c-2.41-2.58-4.68-5.02-6.96-7.46c-0.43-0.67-0.86-1.35-1.71-2.69
		c3.53,0.6,6.4,1.1,9.27,1.56C312.88,305.86,311.67,307.49,311.87,308.6z"/>
	<path fill="#050505" d="M287.8,304.17c0.87,0.23,3.05-0.47,1.18,1.68c-2.34,2.69-4.68,5.39-7.27,8.38
		c-0.72-2.14-1.3-3.89-1.89-5.63c-0.7-2.37,0.5-3.2,2.64-3.46C284.25,304.93,286.02,304.5,287.8,304.17z"/>
	<path fill="#A7A7A7" d="M296.56,380.29c-0.52,0.26-1.04,0.52-1.56,0.78c-0.42,1.97-0.83,3.94-1.25,5.9
		c-1.3-0.73-0.08-2.07-0.71-2.96c0.65-5.66,1.31-11.32,1.96-16.98c1.46,1.82,1.23-0.19,1.66-0.73c0.47,4.41,0.94,8.82,1.42,13.23
		c-0.31,0.53-0.6,0.52-0.88-0.03C296.99,379.77,296.78,380.03,296.56,380.29z"/>
	<path fill="#0D0D0D" d="M227.73,259.7c0.29-1.26,0.57-2.52,0.88-3.78c0.1-0.39,0.38-0.56,0.63-0.15c0.18,0.29,0.19,0.67,0.27,1.01
		c2.59,4.13,2.88,8.54,1.57,13.14c-0.68,1.41,1.54,2.61,0.06,4.22c-1.82-2.67-5.12-4.44-4.64-8.45
		C226.39,263.6,225.27,261.28,227.73,259.7z"/>
	<path fill="#070707" d="M365.1,265.77c0.79,3.95-3.06,5.53-4.32,8.43c-1.56-0.01-1.67-1.42-1.61-2.26c0.24-3.45,0-7.05,2.3-10.04
		c0.35-2.15,0.69-4.29,1.05-6.44c0.01-0.08,0.13-0.2,0.21-0.21c0.11-0.01,0.23,0.07,0.34,0.11
		C365.89,258.4,365.56,262.07,365.1,265.77z"/>
	<path fill="#070707" d="M225.84,264.88c-3.04-2.17-4.14-5.81-4.4-8.88c-0.18-2.1,3.68-3.11,6.08-4.62c0.7,2.5-0.53,4.31-0.77,6.23
		C227.05,260.11,227.16,262.58,225.84,264.88z"/>
	<path fill="#050505" d="M363.82,253.82c0.01-0.48-0.09-1.35,0.03-1.38c2.29-0.59,3.6,1.49,5.47,2.11c1,0.33,1.59,1.05,1.04,2.22
		c-1.32,2.8-2.63,5.6-3.96,8.39c-0.02,0.04-0.22,0.04-0.3,0c-0.1-0.05-0.16-0.18-0.23-0.27C364.11,261.4,364.2,257.57,363.82,253.82
		z"/>
	<path fill="#333333" d="M302.41,240.01c-5.21,6.03-10.22,12.2-14.48,18.97c-1.2,1.9-2.76,3.86-5.46,4.35
		c6.35-8.08,11.83-16.81,19.26-24.01C302.36,239.14,302.63,239.32,302.41,240.01z"/>
	<path fill="#0B0B0B" d="M294.37,313.49c-0.02-0.45-0.05-0.9-0.07-1.34c-1.18-2.28-1.22-4.76-1.32-7.23c1.75-2.12,4.02-2.12,5.72,0
		c-0.9,4.09-1.79,8.18-2.88,13.15C295.16,316,294.77,314.75,294.37,313.49z"/>
	<path fill="#EEEEEE" d="M307.52,252.31c1.43-0.84,3.01-1.07,4.62-1.21c1.07,1.52-0.2,2.5-0.9,3.54c-1.23,1.81-3,3.18-4.35,4.89
		c-0.65,0.61-1.62,0.53-2.31,1.07c-0.73,0.45-1.47,0.9-2.2,1.34c-1.08,0.7-1.66,0.18-2.05-0.82c0.28-2.73,2.24-4.3,4.03-6.05
		C305.37,254.09,306.93,253.76,307.52,252.31z"/>
	<path fill="#A3A3A3" d="M335.3,343.15c-1.41,0.92-2.83,1.85-4.24,2.77c-4.55,2.97-8.92,6.2-13.53,9.09
		c-0.94-0.28-1.74-0.64-1.05-1.84c1.46,0.09,2.45-0.86,3.54-1.6c8.77-5.98,17.54-11.95,26.32-17.92c0.2,0.2,0.4,0.39,0.59,0.59
		c0.45,0.23,0.47,0.49,0.06,0.78l0.02-0.03c-1.39,1.15-3.04,1.94-4.38,3.16c-2.57,1.46-4.98,3.16-7.36,4.91L335.3,343.15z"/>
	<path fill="#0C0C0C" d="M348.23,288.98c-0.41-3.69-0.2-6.26,4.17-6.29c2.59-0.02,5.18-0.61,7.99-0.36
		C356.43,284.49,352.47,286.66,348.23,288.98z"/>
	<path fill="#131313" d="M243.37,283.84c-0.04,1.3-0.09,2.61,0.52,3.82c-0.17,0.94-0.66,1.21-1.52,0.73
		c-3.69-2.02-7.39-4.04-10.96-6.42C235.44,282.61,239.58,282.1,243.37,283.84z"/>
	<path fill="#101010" d="M231.47,257.09c0.99,2.6,1.94,5.22,2.97,7.81c1.86,4.67,1.88,4.66-1.25,9.89
		c-0.41-2.41-0.74-4.33-1.07-6.24c-1.41-3.28-1.28-6.85-1.84-10.28C230.18,257.64,230.35,256.74,231.47,257.09z"/>
	<path fill="#101010" d="M358.78,273.68c-1.56-0.12-3.51-3.62-2.81-5.54c1.31-3.59,2.87-7.09,4.43-10.89
		c0.83,1.49,0.18,2.67,0.32,3.81C360.67,265.35,360.36,269.61,358.78,273.68z"/>
	<path fill="#0A0A0A" d="M380.62,262.69c0.46,0.04,1.44-0.91,1.3,0.13c-0.35,2.54-0.44,5.31-3.78,6.3c-2.81,0.83-5.48,2.13-8.5,2.66
		c0.95-0.88,1.91-1.76,2.86-2.64C374.26,265.8,376.89,263.55,380.62,262.69z"/>
	<path fill="#0A0A0A" d="M219.19,269.14c0.95,0.88,1.9,1.76,2.85,2.65c-0.11,0.2-0.22,0.4-0.33,0.6c-3.28-1.34-6.67-2.46-9.78-4.11
		c-2.1-1.11-1.91-3.67-2.18-5.79c0.44,0.07,0.88,0.13,1.31,0.2C214.8,263.54,217.37,265.86,219.19,269.14z"/>
	<path fill="#0A0A0A" d="M241.42,280.95c-2.12-0.99-4.22-2.01-6.35-2.97c-1.16-0.52-1.25-1.21-0.7-2.28c0.76-1.46,1.4-2.98,2.4-5.15
		c1.95,3.71,3.56,6.78,5.17,9.85C241.77,280.59,241.59,280.77,241.42,280.95z"/>
	<path fill="#262626" d="M354.64,270.93c4.68,7.8,4.37,5.88-5.43,10.39C351.26,277.39,352.89,274.26,354.64,270.93z"/>
	<path fill="#060606" d="M277.46,355.34c-1.93,1.55-3.86,3.11-6.38,5.13c0.93-2.07,1.54-3.44,2.16-4.82
		c0.31-0.49,0.04-1.26,0.72-1.59c2.52-1.73,3.22-4.92,5.47-7.16C280.54,350.34,280.35,353.17,277.46,355.34z"/>
	<path fill="#060606" d="M316.48,353.17c0.4,0.55,0.8,1.09,1.2,1.64c0.58,0,0.63,0.47,0.77,0.86c0.61,1.37,1.22,2.73,2.14,4.8
		c-2.52-2.02-4.45-3.57-6.37-5.12c-3-2.15-3.05-5.03-1.87-8.72C313.84,349,315.16,351.09,316.48,353.17z"/>
	<path fill="#0C0C0C" d="M322.83,316.83c1.12-1.91,3.16-1.3,4.81-1.69c2.39-0.57,4.83-0.94,8.27-1.59
		c-2.91,2.67-4.68,5.04-7.66,5.93C326.03,319.44,323.81,319.4,322.83,316.83z"/>
	<path fill="#101010" d="M376.78,234.85c0.35-1.27,0.7-2.55,1.11-4.06c2.34,2.04,3.13,4.06,1.38,6.81c-1.72,2.71-2.2,6.1-4.57,8.48
		C373.16,243.06,374.1,237.98,376.78,234.85z"/>
	<path fill="#0A0A0A" d="M259.11,313.92c3.21,0.74,6.43,1.49,10.13,2.34c-1.7,0.97-2.92,1.67-4.15,2.38
		c-4.76,2.06-5.71-2.93-8.46-4.72C257.46,313.92,258.28,313.92,259.11,313.92z"/>
	<path fill="#0A0A0A" d="M216.97,246.61c-2.34-3.38-3.6-7.29-5.4-10.94c-1.08-2.19,1.11-3.14,1.96-5.44
		c0.59,2.02,0.96,3.32,1.34,4.62C217.49,237.89,218.52,243.66,216.97,246.61z"/>
	<path fill="#313131" d="M252.7,298.68c1.42,0.66,1.85,1.79,1.62,3.29c-0.39,2.45-0.73,4.92-1.58,7.44
		c-0.82-3.04-4.64-4.91-2.92-8.75C249.56,298.21,251.97,299.67,252.7,298.68z"/>
	<path fill="#DFDFDF" d="M293.51,389.75c-0.75,7.89-1.31,15.8-2.68,23.63c-0.5-0.64,0.29-3.36-2.01-1.2
		c-0.3,0.29-0.84-0.63-1.01-1.21c0.98-0.11,0.68-0.95,0.87-1.51c0.38-0.45,0-1.24,0.68-1.56c1.44,0.28,1.19-0.86,1.27-1.6
		c0.63-6.22,1.22-12.45,1.83-18.67C293.94,387.76,292.88,389.18,293.51,389.75z"/>
	<path fill="#090909" d="M274.6,300.05c-2.4,0.2-3.24-0.61-2.29-3.07c0.63-1.65,0.83-3.47,1.37-5.9c2.27,3,3.42,5.89,4.58,8.77
		C277.11,301.09,275.88,301.14,274.6,300.05z"/>
	<path fill="#080808" d="M313.41,299.87c1.06-2.91,2.46-5.64,4.25-8.61c1.38,2.44,1.44,4.87,1.99,7.14c0.6,2.49-1.66,1.16-2.57,1.66
		C315.8,301.14,314.58,301.1,313.41,299.87z"/>
	<path fill="#CFCFCF" d="M337.51,287.63c-0.21,1.5,0.28,3.22-1.32,4.3c-2.81,2.24-5.98,3.94-8.9,6.01
		c-2.27,1.29-2.52-0.52-3.01-1.96c-1.26-3.53,2.31-3.34,3.71-4.83c0.7,0.03,0.75,0.54,0.78,1.06c2.93-0.25,5.06-2.57,7.9-3.05
		c0.01-0.39,0.02-0.79,0.04-1.18c-0.15-0.27-0.11-0.52,0.13-0.72C337.15,287.23,337.37,287.36,337.51,287.63z"/>
	<path fill="#7E7E7E" d="M334.5,253.12c1.21-1.02,2.7-1.53,3.91-0.46c1.19,1.04,0.07,2.41-0.19,3.66c-0.16,0.78-2.71,2.1,0.38,2.55
		c0.4,0.06-0.27,0.75-0.64,0.87c-2.35,0.78-4.71,1.5-7.07,2.24c-0.64-0.88-0.31-1.63,0.38-2.24c1.6-1.42,2.35-3.33,3.07-5.25
		C334.45,254.03,334.51,253.58,334.5,253.12z"/>
	<path fill="#282828" d="M215.57,234.09c-0.16-1.17-0.32-2.34-0.51-3.76c2.36,0.24,3.55,1.08,3.56,3.56
		c0.02,4.21,0.31,8.42,0.48,12.63c-0.77,0.23-1.16-0.27-1.28-0.86C217.08,241.8,215.76,238.05,215.57,234.09z"/>
	<path fill="#080808" d="M336.83,300.52c0.47-0.4,0.94-0.79,1.4-1.19c0.33,0.06,0.65,0.12,0.98,0.18c1.47,0.44,3.46,0.22,3.43,2.62
		c-1.14,2.43-2.29,4.86-3.82,8.11c-0.4-1.66-0.57-2.32-0.73-2.98C337.02,305.14,336.71,302.87,336.83,300.52z"/>
	<path fill="#0A0A0A" d="M357.35,234.07c5.02,3.37,7.24,9.09,5.14,13.45C360.75,242.96,359.12,238.69,357.35,234.07z"/>
	<path fill="#0C0C0C" d="M234,234.76c-1.53,4.12-3.06,8.24-4.79,12.88c-3.81-6.51,2.38-9.11,3.7-13.32
		C233.27,234.47,233.64,234.61,234,234.76z"/>
	<path fill="#060606" d="M277.56,318.7c2.68-2.31,4.19-1.57,4.85,1.78c0.36,1.85,1.66,3.45,1.62,5.74c-1.56-1.3-2.92-2.43-4.27-3.57
		C279.46,321.08,276.47,321.02,277.56,318.7z"/>
	<path fill="#070707" d="M311.93,322.64c-1.36,1.14-2.73,2.28-4.93,4.12c1.31-3.52,2.03-6.2,3.26-8.61
		c1.51-2.94,2.48,0.87,3.86,0.56C315.17,321.01,312.26,321.1,311.93,322.64z"/>
	<path fill="#0E0E0E" d="M374.56,272.67c-2.66,2-5.33,3.99-7.98,5.99c-0.79,0.6-1.57,0.88-1.93-0.32c-0.25-0.86-1.49-1.94,0.31-2.65
		c3.09-1.22,6.15-2.5,9.22-3.75C374.31,272.19,374.43,272.43,374.56,272.67z"/>
	<path fill="#F7F7F7" d="M335.25,253.86c0.4,0.09,1.62-0.56,0.9,0.63c-1.57,2.61-2.57,5.65-5.26,7.48
		c-0.26,0.24-0.52,0.48-0.78,0.72c-1.21,0.68-1.77,0.08-2.06-1.05C328.91,257.62,331.73,255.41,335.25,253.86z"/>
	<path fill="#313131" d="M315.59,259.76c-1.62,1.16-2.46,3.26-5.31,4.16c2.53-5.38,6.68-8.75,9.68-12.93
		c1.34-0.06,1.17,0.62,0.72,1.45c-0.78,0.94-1.57,1.89-2.35,2.83C318.69,257.55,316.57,258.31,315.59,259.76z"/>
	<path fill="#202020" d="M353.28,280.99c2.67-1.27,5.37-2.51,8.01-3.83c1.6-0.8,1.76,0.42,2.21,1.37c0.6,1.25,0.09,1.75-1.15,1.91
		c-2.95,0.38-5.89,0.81-8.84,1.21C353.44,281.43,353.36,281.21,353.28,280.99z"/>
	<path fill="#111111" d="M238.05,281.61c-2.74-0.37-5.49-0.71-8.22-1.12c-0.99-0.15-2.39-0.04-1.68-1.86
		c0.48-1.24,0.9-2.2,2.53-1.33c2.44,1.29,4.95,2.44,7.43,3.65C238.09,281.16,238.07,281.39,238.05,281.61z"/>
	<path fill="#1D1D1D" d="M373.17,236.02c-0.09-4.46-0.09-4.46,3.31-5.75c-0.13,1.36-0.25,2.58-0.36,3.8
		c-0.58,3.08-0.1,6.47-2.67,8.96C372.46,240.74,372.88,238.38,373.17,236.02z"/>
	<path fill="#0D0D0D" d="M219.26,272.8c2.26,0.86,4.48,1.84,6.78,2.56c1.9,0.6,1.71,1.65,1.01,2.99c-0.95,1.8-1.79,0.36-2.52-0.17
		c-2.07-1.48-4.07-3.05-6.1-4.59C218.3,272.91,218.44,272.5,219.26,272.8z"/>
	<path fill="#0F0F0F" d="M368.9,249.49c-1.87-3.6-4.21-7.11-2.1-11.45c0.45-0.63,1.24-0.7,1.42-0.08c1.02,3.44,1.74,6.96,1.9,10.55
		C370.14,249.06,369.7,249.65,368.9,249.49z"/>
	<path fill="#D3D3D3" d="M368.9,249.49c0.8-4.09,0.25-7.94-2.1-11.45c0.49-1.1,0.97-2.19,1.46-3.29c0.79,3.63,1.58,7.26,2.38,10.94
		c1.06,0.06,0.55-1.12,1.06-1.5c0.8,3.03-0.29,5.47-2.39,7.58c0,0,0.01-0.01,0.01-0.01C369.18,251.01,369.04,250.25,368.9,249.49z"
		/>
	<path fill="#444444" d="M320.68,252.44c-0.24-0.48-0.48-0.97-0.72-1.45c3.72-5.49,8.08-10.41,13.14-14.71
		c0.23,0.18,0.31,0.37,0.24,0.56c-0.07,0.19-0.15,0.29-0.22,0.29C328.86,242.14,324.29,246.9,320.68,252.44z"/>
	<path fill="#111111" d="M309.7,349.99c-3.08-5.87-2.97-6.29,3.37-11.64C311.32,342.47,310.48,346.01,309.7,349.99z"/>
	<path fill="#0C0C0C" d="M336.52,294.06c4.8-6.96,3.39-6.29,8.71-3.91C342.48,292.1,339.53,293.07,336.52,294.06z"/>
	<path fill="#0F0F0F" d="M224.86,238.05c1.87,4.26,0.38,7.81-2.41,11.16c-0.74-0.29-0.4-0.92-0.41-1.4c0-0.6,0.08-1.19,0.13-1.79
		c-0.02-2.28,0.48-4.5,0.77-6.74C223.05,238.47,223.12,236.7,224.86,238.05z"/>
	<path fill="#0E0E0E" d="M246.45,289.8c5.37-1.47,6.34-0.95,9.2,4.98C252.64,293.02,248.95,292.52,246.45,289.8z"/>
	<path fill="#191919" d="M282.12,349.65c-1.2-3.09-1.19-6.42-3.01-9.29C284.02,341.3,285.04,344.49,282.12,349.65z"/>
	<path fill="#363636" d="M287.18,251.63c-1.64,1.88-3.32,3.72-4.91,5.64c-1.57,1.9-3.42,3.6-4.36,6.01
		C277.26,260.55,282.54,253.26,287.18,251.63z"/>
	<path fill="#323232" d="M226.43,244.75c2.34,5.46,2.33,5.47-4.57,8.43C223.45,250.24,224.77,247.8,226.43,244.75z"/>
	<path fill="#141414" d="M267.41,296.08c-0.55-1.05-1.28-1.94-2.28-2.6c-0.43-0.69-0.85-1.37-1.36-2.19
		c6.29,0.97,6.31,0.99,6.22,6.53C268.69,297.89,268.39,296.46,267.41,296.08z"/>
	<path fill="#363636" d="M369.31,251.78c-0.03,0.33-0.08,0.94-0.09,0.94c-4.13-0.2-5.97-3.27-4.25-7.42
		c2.25,1.69,2.62,4.57,4.36,6.47C369.32,251.77,369.31,251.78,369.31,251.78z"/>
	<path fill="#0F0F0F" d="M303.24,349.56c0-1.07,0-2.15,0-3.28c5.05,2.39,5.13,2.78,1.69,7.58c-1.72-1-0.32-3.26-1.75-4.35
		L303.24,349.56z"/>
	<path fill="#101010" d="M327.99,291.15c-1.24,1.61-2.47,3.22-3.71,4.83c-0.79,0.68-1.58,1.37-2.52,2.19
		C321.53,292.38,321.53,292.38,327.99,291.15z"/>
	<path fill="#E8E8E8" d="M273.96,354.07c0,0.64,0.03,1.29-0.72,1.59c-4.44-4.39-10.32-6.85-14.88-11.08
		c0.29-0.42,0.61-0.45,0.96-0.08c4.91,2.78,9.04,6.78,14.31,9C273.77,353.66,273.88,353.86,273.96,354.07z"/>
	<path fill="#0E0E0E" d="M287.17,354.59c-3.76-5.58-3.76-5.58,1.33-8.5C288.07,348.85,287.67,351.38,287.17,354.59z"/>
	<path fill="#C5C5C5" d="M215.57,234.09c1.69,4,1.56,8.51,3.53,12.43c0.1,0.88-0.09,2.01-0.86,2.13c-1.46,0.22-0.43-1.58-1.27-2.04
		c0.07-4.05-1.81-7.76-2.1-11.75C215.11,234.6,215.34,234.34,215.57,234.09z"/>
	<path fill="#D7D7D7" d="M373.84,242.88c0.76-2.93,1.52-5.87,2.28-8.8c0.22,0.26,0.44,0.52,0.66,0.78
		c-0.32,3.81-2.05,7.36-2.08,11.22c-0.12,0.96,0.33,2.28-0.99,2.57c-0.69,0.15-0.95-0.81-1.08-1.5
		C373.39,245.82,372.22,243.95,373.84,242.88z"/>
	<path fill="#393939" d="M264.58,294.04c0.61,1.32,0.57,1.98-1,0.92c-2.88-1.95-5.74-3.93-8.6-5.89
		C259.22,288.72,262.13,290.95,264.58,294.04z"/>
	<path fill="#161616" d="M336.67,289.16c-3.16,2.13-6.32,4.26-9.87,6.64c0.13-1.9,1.56-2.46,1.96-3.59
		C330.81,289.65,333.66,289.21,336.67,289.16z"/>
	<path fill="#929292" d="M283.23,373.19c-0.77-4.93-1.85-9.81-2.01-14.82c0.28,0,0.55,0,0.83,0c1.2,4.31,1.46,8.77,2.06,13.18
		C283.59,371.97,284.1,372.95,283.23,373.19z"/>
	<path fill="#919191" d="M310.46,358.37c-0.18,4.99-1.2,9.86-2.02,14.76c-0.58-0.01-0.57-0.61-0.89-0.88
		c0.47-4.66,1.01-9.32,2.12-13.88C309.93,358.37,310.19,358.37,310.46,358.37z"/>
	<path fill="#151515" d="M371.8,267.81c2.2-2.42,4.38-4.86,6.63-7.24c0.76-0.8,1.65-2.42,2.89-1.03c1.31,1.48-1.1,1.58-1.4,2.56
		C377.52,264.44,375.62,267.5,371.8,267.81z"/>
	<path fill="#1F1F1F" d="M279.19,309.41c0.19,0.95,0.26,1.94,0.61,2.83c1.08,2.75,0.22,4.39-2.66,5.05
		c-0.78-1.47,0.57-2.79,0.3-4.22C278.13,311.9,277.38,310.04,279.19,309.41z"/>
	<path fill="#181818" d="M314.93,317.48c-3.16-0.52-4.22-2.22-3.05-5.28c0.34-0.88,0.42-1.86,0.62-2.79
		C314.63,311.7,314.01,314.82,314.93,317.48z"/>
	<path fill="#CDCDCD" d="M358.78,273.68c0.49-4.23,0.82-8.49,1.94-12.62c0.25,0.28,0.5,0.56,0.75,0.84
		c-0.37,2.87-0.81,5.73-1.08,8.61c-0.11,1.22-0.96,2.6,0.39,3.7C359.74,275.49,359.36,274.2,358.78,273.68z"/>
	<path fill="#8F8F8F" d="M312.04,356.08c0.88,3.96,1.77,7.92,2.65,11.89c-0.24,0.75-0.49,1.51-0.73,2.26
		c-0.65-2.91-1.33-5.82-1.95-8.74c-0.25-1.18-0.43-2.37-1.55-3.11C310.02,356.95,311.95,357.15,312.04,356.08z"/>
	<path fill="#C5C5C5" d="M313.41,299.87c1.22,0.06,2.45,0.12,3.67,0.18c0.42,0.58,1.64,0.98,0.47,1.95
		c-2.86,0.54-5.73,0.57-8.61,0.14c-0.95-0.44-1.64-1.04-1.33-2.23c0.71-0.54,1.53-0.9,2.2-1.48c0.21-0.23,0.42-0.47,0.64-0.7
		c1.03-0.15,1.18,0.31,0.8,1.14C311.52,300.18,312.15,300.71,313.41,299.87z"/>
	<path fill="#C5C5C5" d="M274.6,300.05c1.22-0.07,2.44-0.13,3.66-0.2c1.27,0.87,1.89,0.32,2.16-0.99c-0.37-0.83-0.2-1.28,0.8-1.16
		c0.22,0.24,0.45,0.48,0.67,0.72c0.5,0.81,1.52,0.86,2.15,1.48c0.36,1.21-0.37,1.78-1.31,2.23c-2.88,0.45-5.75,0.4-8.61-0.14
		C272.96,301.02,274.18,300.64,274.6,300.05z"/>
	<path fill="#EDEDED" d="M231.47,257.09c-1.59,2.55,0.32,5.03,0.2,7.56c-0.06,1.29,0.29,2.59,0.46,3.89
		c-0.35,0.46-0.7,0.92-1.04,1.39c-0.52-4.38-1.05-8.76-1.57-13.14c0.36-0.4,0.44-1.3,1.11-1.08
		C231.02,255.84,231.2,256.61,231.47,257.09z"/>
	<path fill="#141414" d="M257.07,294.1c-0.43-0.78-0.86-1.56-1.29-2.35c0.12-0.14,0.25-0.28,0.37-0.43c2.6,1.77,5.2,3.55,7.8,5.32
		c0.91,0.62,0.81,1.01-0.26,1.19C261.39,296.76,258.57,296.59,257.07,294.1z"/>
	<path fill="#999999" d="M262.98,252.03c3.22-3.02,6.44-6.04,9.67-9.04c0.4-0.38,0.86-0.69,1.39-0.9
		c-3.5,3.47-7.01,6.94-10.51,10.41C263.35,252.34,263.16,252.19,262.98,252.03z"/>
	<path fill="#111111" d="M327.29,297.94c2.3-3,5.17-5.14,8.9-6.01C334.15,295.31,331.14,297.24,327.29,297.94z"/>
	<path fill="#303030" d="M306.04,259c2.48-2.28,5.42-4.22,6.1-7.89c2.12,0.2,2.07,1.04,0.84,2.47c-2.14,2.47-4.19,5.03-6.27,7.55
		C304.99,260.88,305.72,259.88,306.04,259z"/>
	<path fill="#969696" d="M276.99,367.95c0.89-3.96,1.77-7.91,2.66-11.87c0.28,0.52,0.57,1.03,0.85,1.55
		c-0.92,4.21-1.84,8.42-2.76,12.63C277.49,369.49,277.24,368.72,276.99,367.95z"/>
	<path fill="#0B0B0B" d="M308.95,302.14c2.85-1.37,5.72-1.03,8.61-0.14C314.72,304.1,311.86,304.76,308.95,302.14z"/>
	<path fill="#404040" d="M304.11,336.5c0.42-0.19,0.95-1.53,1.19,0.08c0.26,1.73-0.06,3.52,0.65,5.2c-0.08,1.23-0.46,2.18-1.97,1.77
		c-1.16-0.32-0.9-1.28-0.77-2.08C303.47,339.8,303.8,338.15,304.11,336.5z"/>
	<path fill="#D8D8D8" d="M297.2,379.51c0.29,0.01,0.59,0.02,0.88,0.03c0.8,3.87,1.08,7.8,1.31,11.74c-0.25,0.55-0.5,1.11-0.76,1.66
		C297.73,388.51,297.23,384.04,297.2,379.51z"/>
	<path fill="#414141" d="M289.81,348.21c0.52,2.35,0.93,4.32,1.4,6.28c0.27,1.12,0.17,1.89-1.24,1.91
		c-1.14,0.02-1.85-0.28-1.65-1.63C288.62,352.69,288.48,350.52,289.81,348.21z"/>
	<path fill="#0B0B0B" d="M274.12,301.99c2.89-0.88,5.76-1.22,8.61,0.14C279.82,304.74,276.96,304.11,274.12,301.99z"/>
	<path fill="#323232" d="M285.74,341.8c0.69-1.55,0.43-3.22,0.63-4.84c0.04-0.36-0.12-1.08,0.59-0.82c0.36,0.13,0.54,0.72,0.8,1.11
		c0.48,1.15,0.81,2.33,0.75,3.59c-0.23,0.99,0.73,2.52-1.2,2.75C285.94,343.76,285.88,342.74,285.74,341.8z"/>
	<path fill="#727272" d="M265.14,265.11c-2.9-3.32-2.99-6.84-0.18-10.9C264.62,258.07,263.86,261.59,265.14,265.11z"/>
	<path fill="#313131" d="M335.25,253.86c-2.58,2.09-5.07,4.26-6.58,7.31c-1.74-0.23-1.04-1.29-0.75-2.21
		c1.93-2.24,3.86-4.48,6.58-5.84C334.75,253.36,335,253.61,335.25,253.86z"/>
	<path fill="#0C0C0C" d="M211.78,262.1c-0.29-0.99-2.71-1.04-1.46-2.53c1.18-1.41,2.07,0.15,2.84,0.94
		c1.33,1.37,2.58,2.81,3.87,4.22c0.17,0.2,0.24,0.41,0.2,0.62c-0.04,0.22-0.08,0.33-0.13,0.33
		C214.3,266.01,213.31,263.65,211.78,262.1z"/>
	<path fill="#0E0E0E" d="M341.29,287.57c2.39-1.42,3.79-2.26,5.3-3.17c0.68,1.67,0.83,3.56-0.07,4.28
		C345.1,289.8,343.8,287.89,341.29,287.57z"/>
	<path fill="#C3C3C3" d="M294.99,327.64c-1.06,3.71-1.88,7.5-3.51,11.02c-0.2-0.47-0.41-0.94-0.61-1.41
		c0.94-3.57,1.82-7.16,3.34-10.55C294.46,327.02,294.72,327.33,294.99,327.64z"/>
	<path fill="#121212" d="M322.33,306.23c-0.77,2.47-1.19,4.54-2.49,6.46C317.79,309.52,318.07,307.35,322.33,306.23z"/>
	<path fill="#0E0E0E" d="M244.58,286.06c0.22-0.68-0.08-2.01,1.37-1.24c1.16,0.62,2.24,1.38,3.64,2.26
		c-1.54,1.28-2.95,2.12-4.84,1.81C244.69,287.94,244.63,287,244.58,286.06z"/>
	<path fill="#D2D2D2" d="M363.82,253.82c1.16,3.6,1.55,7.35,2.05,11.07c-0.26,0.29-0.52,0.58-0.77,0.87
		c-1.13-3.38-1.44-6.93-2.04-10.41C363.32,254.84,363.57,254.33,363.82,253.82z"/>
	<path fill="#1B1B1B" d="M337.51,287.63l-0.35-0.07l-0.36,0.02c-0.77,0.22-0.95-0.12-0.78-0.8c2.17-1.42,4.33-2.84,7.27-4.76
		C341.68,285.14,340.5,287.33,337.51,287.63z"/>
	<path fill="#2F2F2F" d="M307.52,252.31c1.54,0.45,0.45,0.89-0.04,1.23c-2.66,1.86-5.01,4-6.55,6.91c-1.41,0.07-1.05-0.81-0.85-1.6
		C302,256.04,304.46,253.83,307.52,252.31z"/>
	<path fill="#C3C3C3" d="M224.86,238.05c-2.13,0.76-1.07,2.86-1.74,4.25c-0.55,1.14-0.12,2.6-0.95,3.72
		c-0.23-0.51-0.46-1.02-0.69-1.53c0.45-3.29,0.82-6.59,1.91-9.75C223.89,235.84,224.37,236.95,224.86,238.05z"/>
	<path fill="#1B1B1B" d="M254.85,287.61c-3.29-0.26-5.28-1.94-5.76-5.27c2.19,1.48,4.37,2.96,6.56,4.44
		C255.82,287.48,255.63,287.83,254.85,287.61z"/>
	<path fill="#0A0A0A" d="M273.17,307.97c0.26,1.62-0.64,2.93-1.18,5.25c-0.95-2.81-2.93-4.44-1.7-6.98
		C271.25,306.82,272.21,307.4,273.17,307.97z"/>
	<path fill="#D7D7D7" d="M211.78,262.1c1.71,1.25,3.43,2.49,5.14,3.74c1.28,0.2,1.88,1.43,2.95,1.94c-0.23,0.45-0.46,0.91-0.68,1.36
		c-2.88-1.93-5.63-4.03-8.13-6.44C211.3,262.5,211.54,262.3,211.78,262.1z"/>
	<path fill="#D7D7D7" d="M371.8,267.81c3.16-1.26,5.18-4.13,8.11-5.7c0.23,0.19,0.47,0.39,0.7,0.58c-2.48,2.43-5.25,4.5-8.12,6.44
		C372.27,268.7,372.03,268.26,371.8,267.81z"/>
	<path fill="#1E1E1E" d="M316.39,318.14c-0.26-0.51-0.51-1.03-0.77-1.54c-0.17-1.52-0.34-3.05-0.52-4.66
		C319.43,315.44,319.48,315.67,316.39,318.14z"/>
	<path fill="#D0D0D0" d="M257.79,309.38c2.68-1.72,5.36-3.44,8.04-5.17c0.28,0.29,0.57,0.58,0.85,0.86
		c-2.53,1.96-5.28,3.54-8.14,4.95C258.29,309.81,258.04,309.59,257.79,309.38z"/>
	<path fill="#D1D1D1" d="M325.85,304.22c2.68,1.72,5.36,3.44,8.04,5.16c-0.24,0.21-0.49,0.43-0.73,0.64
		c-2.86-1.4-5.62-2.99-8.14-4.95C325.29,304.79,325.57,304.5,325.85,304.22z"/>
	<path fill="#282828" d="M273.58,270.01c0.39,0.27,0.78,0.54,1.17,0.81c1.32,2.99,0.58,5.88-0.59,9.51
		C273.93,276.39,273.76,273.2,273.58,270.01z"/>
	<path fill="#262626" d="M316.95,270.81c0.28-0.02,0.55-0.05,0.83-0.07c0,2.9,0,5.8,0,8.71
		C316.58,276.62,315.33,273.82,316.95,270.81z"/>
	<path fill="#3B3B3B" d="M274.61,256.73c0.27,0.53,0.55,1.05,0.82,1.58c-1.19,2.61-2.75,4.89-6,6.9
		C271.46,261.9,273.03,259.31,274.61,256.73z"/>
	<path fill="#A1A1A1" d="M315.59,259.76c0.45-1.78,1.36-3.28,2.74-4.49c1,1.03,2.01,2.07,3.01,3.1c-0.54,0.38,0,1.81-1.35,1.4
		C318.53,257.74,317.05,259.28,315.59,259.76z"/>
	<path fill="#E3E3E3" d="M304.62,397.12c0.04,3.28-0.5,6.48-1.37,9.64c-0.24-0.29-0.48-0.58-0.72-0.87
		c0.49-3.41,0.97-6.82,1.46-10.24C305.25,395.69,305.07,396.35,304.62,397.12z"/>
	<path fill="#404040" d="M379.63,224.16c0.22,2.12,0.45,4.24,0.72,6.83c-2.88-2.17-1.95-4.5-1.64-6.72
		C379.02,224.23,379.33,224.2,379.63,224.16z"/>
	<path fill="#222222" d="M311.26,298.87c-0.27-0.38-0.54-0.76-0.8-1.14c-0.51-2.53,1.57-3.8,2.61-5.59
		C312.72,294.48,313.28,297.04,311.26,298.87z"/>
	<path fill="#232323" d="M281.22,297.71c-0.27,0.39-0.53,0.77-0.8,1.16c-2.02-1.82-1.46-4.37-1.9-6.65
		C279.87,293.84,281.62,295.25,281.22,297.71z"/>
	<path fill="#3D3D3D" d="M295.07,256.89c1.87-2.11,4.14-2.78,5.15-4.85c0.26-0.53,0.96-0.87,1.52-0.28
		c0.52,0.54,0.22,1.17-0.22,1.61C299.85,254.98,297.86,255.98,295.07,256.89z"/>
	<path fill="#141414" d="M274.69,318.07c-2.64-2.61-1.28-4.09,1.47-5.17c0.26,1.84-0.32,3.53-0.88,5.23
		C275.08,318.12,274.89,318.1,274.69,318.07z"/>
	<path fill="#262626" d="M212.03,224.33c1.33,2.22,1.99,4.37-0.62,6.73C211.65,228.41,211.84,226.37,212.03,224.33z"/>
	<path fill="#676767" d="M290.62,263.38c-0.88-2.53,2.64-3.53,0.91-5.83C294.15,259.47,294.15,259.47,290.62,263.38z"/>
	<path fill="#282828" d="M307.7,352.53c0.43,1.56,1.23,3.13-0.68,4.08c-0.32,0.16-1.27-0.12-1.3-0.31
		C305.4,354.54,306.87,353.72,307.7,352.53z"/>
	<path fill="#9F9F9F" d="M327.36,246.71c1.43-2.26,3.25-4.15,5.52-5.59C331.6,243.52,329.68,245.31,327.36,246.71z"/>
	<path fill="#070707" d="M338.17,299.53l0.07-0.19c1.26-1.12,2.6-2.01,4.41-1.63c0.39,1.01,0.76,2.46-0.17,2.86
		C341.04,301.18,339.44,300.62,338.17,299.53z"/>
	<path fill="#161616" d="M265.24,319.79c1.4-0.66,2.78-1.34,4.2-1.96c1.27-0.55,0.93,0.51,1.04,1.11
		C269.19,322.03,267.09,320.16,265.24,319.79z"/>
	<path fill="#DBDBDB" d="M336.83,300.52c1.04,2.13,1.09,4.45,1.26,6.75c-0.25,0.3-0.5,0.6-0.76,0.9c-0.57-2.24-1.61-4.41-1.16-6.82
		C336.39,301.07,336.61,300.79,336.83,300.52z"/>
	<path fill="#2E2E2E" d="M343.16,280.35c0.81-2.2,1.25-3.96,2.79-5.69C346.35,277.24,346.72,279.33,343.16,280.35z"/>
	<path fill="#3E3E3E" d="M309.74,327.92c-0.47-0.19-2.21,0.75-0.96-0.95c0.9-1.22,2.13-2.2,3.22-3.28
		C312.45,325.74,311.88,327.25,309.74,327.92z"/>
	<path fill="#0B0B0B" d="M303.05,352.59c0.06,0.72,0.1,1.43,0.18,2.15c0.13,1.04-0.23,1.58-1.35,1.55c-1.3-0.03-1.23-0.79-1-1.7
		c0.29-1.16,0.57-2.32,0.86-3.47C303.22,350.67,302.51,352.19,303.05,352.59z"/>
	<path fill="#353535" d="M283.64,351.92c1.49,1.65,2.49,2.74,2.33,4.38c-0.02,0.16-0.93,0.47-1.27,0.33
		C282.7,355.79,283.55,354.13,283.64,351.92z"/>
	<path fill="#060606" d="M271.78,321.62c1.2-0.54,2.39-1.48,3.09-0.76c0.73,0.76,0.54,2.19-0.09,3.33
		C273.27,323.87,272.78,322.62,271.78,321.62z"/>
	<path fill="#F5F5F5" d="M292.98,304.92c0.86,2.33,1.11,4.78,1.32,7.24c-2.45-1.58-1.31-4.27-1.97-6.4
		C292.55,305.47,292.76,305.19,292.98,304.92z"/>
	<path fill="#161616" d="M326.29,320.28c-1.78-0.46-4.71,1.99-5.11-2c-0.07-0.65,0.43-0.7,0.89-0.78
		C323.61,318.23,325.89,317.83,326.29,320.28z"/>
	<path fill="#282828" d="M245.59,274.62c1.77,1.78,1.96,3.6,2.99,5.42C244.82,279.61,245.5,277.22,245.59,274.62z"/>
	<path fill="#080808" d="M252.7,298.68c-0.55,1.25-2.08,1.08-2.88,1.98c-2.08,0.23-1.4-0.9-1.03-1.98c0.28-0.84,0.4-1.7,1.62-1.05
		C251.15,298.02,251.94,298.33,252.7,298.68z"/>
	<path fill="#424242" d="M381.49,253.49c0.85,0.2,0.65,0.92,0.65,1.37c0.01,1.16,1.11,2.29,0.16,3.44c-0.12,0.14-0.76,0.06-1-0.12
		c-1.44-1.1-0.46-2.42-0.25-3.65C381.12,254.19,381.33,253.88,381.49,253.49z"/>
	<path fill="#797979" d="M336.05,234.22c0.44-0.77,1.08-1.57,1.96-1.08c0.68,0.38,0.39,1.35,0.01,1.98c-0.79,1.3-1.36,2.8-2.94,3.55
		c-0.46-1.73,2.45-2.66,0.93-4.5L336.05,234.22z"/>
	<path fill="#060606" d="M319.63,321.57c-0.42,1.31-1.51,1.89-2.5,2.95c-0.94-1.37-0.62-2.59-0.49-3.85
		C317.8,320.66,318.76,320.93,319.63,321.57z"/>
	<path fill="#313131" d="M314.16,293.97c0.49-2.05,0.98-4.1,1.65-6.86C318.22,290.61,315.12,292.03,314.16,293.97z"/>
	<path fill="#313131" d="M276.1,287.97c0.47,1.96,0.93,3.93,1.4,5.89C276.3,292.05,273.78,290.62,276.1,287.97z"/>
	<path fill="#404040" d="M209.85,253.48c0.87,1.45,1.84,2.92,0.7,4.55c-0.18,0.26-1.17,0.35-1.22,0.25
		C208.52,256.61,209.82,255.14,209.85,253.48z"/>
	<path fill="#3F3F3F" d="M325.83,254.69c0.28-0.23,0.53-0.53,0.85-0.66c1.22-0.51,0.92-2.64,2.67-2.5c0.27,0.02,0.74,0.42,0.72,0.62
		c-0.15,1.71-1.62,2.24-2.83,2.99c-0.2,0.13-0.44,0.2-0.66,0.29C325.8,255.74,325.68,255.35,325.83,254.69z"/>
	<path fill="#FAFAFA" d="M225.84,264.88c0.3-2.42,0.61-4.84,0.91-7.26c0.32,0.7,0.65,1.39,0.97,2.09c-0.35,2.01-0.36,4.09-1.23,6
		C226.28,265.43,226.06,265.15,225.84,264.88z"/>
	<path fill="#373737" d="M373.84,242.88c-0.4,1.42-0.81,2.84-1.21,4.26c-0.15-3.72-0.22-7.44,0.54-11.12
		C373.61,238.29,372.81,240.67,373.84,242.88z"/>
	<path fill="#7F7F7F" d="M307.5,237.05c0.3-0.76,0.82-1.52,0.85-2.3c0.02-0.77-0.02-1.42,0.77-1.72c0.28-0.11,0.84-0.09,0.96,0.08
		c0.56,0.81,0.11,1.63-0.32,2.3c-0.63,0.99-1.41,1.88-2.12,2.82C307.24,237.88,307.19,237.49,307.5,237.05z"/>
	<path fill="#929292" d="M307.5,237.05c0.04,0.39,0.09,0.78,0.13,1.18c-1.16,1.94-2.72,3.5-4.9,4.49
		C304.33,240.83,305.92,238.94,307.5,237.05z"/>
	<path fill="#292929" d="M279.56,325.51c2.19-1.11,2.84,0.98,3.58,2.07c0.46,0.68-0.8,0.06-1.19,0.34
		C280.59,327.67,279.94,326.72,279.56,325.51z"/>
	<path fill="#2B2B2B" d="M302.7,302.69c2.4-1.91,4.02-1.06,5.82,0.74C306.41,303.91,304.78,303.19,302.7,302.69z"/>
	<path fill="#2B2B2B" d="M288.55,302.98c-0.57,0.16-1.13,0.31-1.7,0.47c-1.07,0.07-2.13,0.13-3.32,0.21
		C285.91,300.86,286.4,300.81,288.55,302.98z"/>
	<path fill="#242424" d="M379.98,218.69c2.38,1.85,1.16,4.08,0.79,6.26C380.51,222.87,380.25,220.78,379.98,218.69z"/>
	<path fill="#D9D9D9" d="M326.29,320.28c-0.95-1.61-3.05-1.5-4.22-2.78c0.25-0.23,0.51-0.45,0.76-0.68
		c1.92,0.64,3.77,1.44,5.42,2.64C327.6,319.74,326.94,320.01,326.29,320.28z"/>
	<path fill="#1B1B1B" d="M211.62,218.57c-0.21,2.07-0.41,4.15-0.62,6.22C210.5,222.67,209.44,220.52,211.62,218.57z"/>
	<path fill="#343434" d="M243.27,280.59c-0.73-1.41-1.46-2.81-2.19-4.22C242.79,277.3,244.47,278.24,243.27,280.59z"/>
	<path fill="#868686" d="M327.92,258.95c0.05,0.81,0.02,1.64,0.75,2.21c0.09,0.87,0.58,1.37,1.44,1.52
		c-0.88,0.86-2.1,1.39-2.58,0.02C327.16,261.62,325.35,259.9,327.92,258.95z"/>
	<path fill="#787878" d="M300.08,258.85c0.28,0.53,0.57,1.07,0.85,1.6c0.01,0.96,0.5,1.46,1.45,1.5c-0.59,0.85-1.69,1.75-2.33,1.02
		C299.05,261.85,298.62,260.21,300.08,258.85z"/>
	<path fill="#434343" d="M317.92,312.32c-1.21-0.76-2.51-1.4-2.37-2.94c0.04-0.5,0.69-0.74,1.15-0.51
		C318.18,309.58,317.65,311.11,317.92,312.32z"/>
	<path fill="#969696" d="M338.17,299.53c1.68-0.15,4.66,2.91,4.48-1.82c0.95,1.48,0.89,2.96-0.01,4.43
		C341.52,300.63,339,301.53,338.17,299.53z"/>
	<path fill="#494949" d="M275.87,310.83c-0.61,0.54-1.22,1.07-2.04,1.8c-0.3-1.6,0.18-2.78,0.8-3.95
		C276.18,308.74,276.67,309.41,275.87,310.83z"/>
	<path fill="#262626" d="M350.18,276.23c-0.36,1.68-0.79,3.29-2.3,4.44C346.91,278.2,349.08,277.45,350.18,276.23z"/>
	<path fill="#303030" d="M247.02,282.37c-0.02,0.66,1.15,1.23,0.49,1.7c-0.35,0.25-1.38-0.46-2.1-0.73
		c-0.78-0.62-1.15-1.58-0.34-2.12C246.01,280.6,246.35,281.98,247.02,282.37z"/>
	<path fill="#919191" d="M306.04,259c0.22,0.71,0.44,1.42,0.67,2.13c0.17,0.65,1.5,1.23,0.17,1.97c-0.98,0.55-1.6,0.25-1.66-0.93
		c-0.03-0.59-0.02-1.21-0.64-1.56C304.8,259.82,305.35,259.34,306.04,259z"/>
	<path fill="#2E2E2E" d="M344.01,284.22c0.65-1.23,0.85-2.88,2.56-3.04c0.11-0.01,0.44,0.6,0.4,0.88
		C346.75,283.7,345.09,283.57,344.01,284.22z"/>
	<path fill="#969696" d="M275.44,286c-1.2-1.72-0.84-2.81,0.31-4.08C276.25,283.3,276.28,284.41,275.44,286z"/>
	<path fill="#8C8C8C" d="M316.2,286.09c-0.8-1.63-0.79-2.76-0.32-4.19C316.9,283.27,317.34,284.37,316.2,286.09z"/>
	<path fill="#373737" d="M319.98,259.78c0.45-0.47,0.9-0.94,1.35-1.4c0.81,2.37-1.54,3.15-2.23,5.04
		C317.9,261.53,319.59,260.86,319.98,259.78z"/>
	<path fill="#2E2E2E" d="M278.45,324.75c0.09,0.27,0.17,0.55,0.26,0.82c-0.2,1.55-1.28,0.97-1.79,0.5c-0.7-0.65-0.31-1.7,0.3-2.17
		C277.79,323.45,278.17,324.25,278.45,324.75z"/>
	<path fill="#2D2D2D" d="M314.21,323.5c0.69,1.03,1.34,1.82,0.41,2.67c-0.26,0.24-1.18,0.28-1.26,0.12
		C312.85,325.34,313.34,324.55,314.21,323.5z"/>
	<path fill="#181818" d="M318.78,317.64c1.01-0.13,1.15,0.46,1.24,1.06c0.08,0.55,0.3,1.33-0.66,1.18
		c-0.61-0.09-1.63-0.05-1.52-1.05C317.88,318.37,318.5,317.96,318.78,317.64z"/>
	<path fill="#181818" d="M271.13,319.83c0.77-0.52,0.19-2.08,1.37-2.09c1-0.01,1.61,0.75,1.38,1.89
		C272.95,319.47,272.1,320.46,271.13,319.83z"/>
	<path fill="#6E6E6E" d="M302.41,240.01c-0.23-0.23-0.46-0.46-0.69-0.69c0.82-1.13,1.68-2.23,3.61-2.97
		C304.58,238.15,303.57,239.13,302.41,240.01z"/>
	<path fill="#2F2F2F" d="M302.22,361.21c-0.55-1.23-1.9-1.85-0.7-2.96c0.26-0.25,1.09-0.37,1.23-0.2
		C303.65,359.17,302.49,359.9,302.22,361.21z"/>
	<path fill="#4D4D4D" d="M290.31,246.02c0.53,0.09,0.87,0.47,0.8,0.94c-0.11,0.73-0.61,1.29-1.37,1.38
		c-0.67,0.07-1.15-0.25-0.92-1.03C289.04,246.59,289.58,246.17,290.31,246.02z"/>
	<path fill="#2F2F2F" d="M289.64,361.09c-0.7-1.25-1.44-2.01-0.77-2.97c0.13-0.18,0.93-0.13,1.22,0.08
		C291.51,359.25,289.98,359.91,289.64,361.09z"/>
	<path fill="#444444" d="M296.91,361.1c-0.03,0.02-0.48,0.52-0.98,0.59c-0.92,0.11-1.15-0.82-1.21-1.42
		c-0.11-0.97,0.78-0.53,1.26-0.58C296.51,359.63,297.2,359.51,296.91,361.1z"/>
	<path fill="#A0A0A0" d="M301.65,341.57c-0.92-1.6-1.63-3.26-1.45-5.16c1.39,1.07,0.99,3.01,2.08,4.23
		C302.07,340.95,301.86,341.26,301.65,341.57z"/>
	<path fill="#838383" d="M261.24,254.68c-0.68,1.61-1.52,2.28-3.1,2.7C258.8,256.03,259.66,255.41,261.24,254.68z"/>
	<path fill="#6A6A6A" d="M292.02,361.48c0.02,0.64-0.15,1.19-0.89,1.2c-0.22,0-0.62-0.38-0.62-0.58c0-0.56,0.02-1.26,0.7-1.44
		C291.79,360.49,291.96,360.99,292.02,361.48z"/>
	<path fill="#FAFAFA" d="M288.52,340.84c-0.73-1.1-0.71-2.35-0.75-3.59c0.2-0.25,0.39-0.5,0.59-0.76c0.33,1.44,0.66,2.88,0.99,4.31
		C289.07,340.82,288.8,340.83,288.52,340.84z"/>
	<path fill="#484848" d="M219.26,272.8c-0.28,0.27-0.55,0.53-0.83,0.8c-0.77-0.52-1.54-1.04-3.03-2.05
		C217.39,271.69,218.41,271.98,219.26,272.8z"/>
	<path fill="#1D1D1D" d="M271.25,295.55c-0.3-2.02-0.73-3.21,0.81-4.11C272.44,292.79,271.84,293.79,271.25,295.55z"/>
	<path fill="#1B1B1B" d="M319.58,291.37c1.72,1.14,0.96,2.35,1.12,4.04C319.7,293.9,319.38,292.85,319.58,291.37z"/>
	<path fill="#3D3D3D" d="M219.87,267.78c-1.39-0.03-2.14-1.04-2.95-1.94c0.04-0.37,0.07-0.73,0.11-1.1
		C218.21,265.53,219.21,266.49,219.87,267.78z"/>
	<path fill="#212121" d="M309.82,298.43c0.95,3-1.44,1.03-2.2,1.48C308.04,298.96,308.52,298.08,309.82,298.43z"/>
	<path fill="#717171" d="M325.83,254.69c0.26,0.25,0.51,0.49,0.77,0.74c-0.87,0.8-1.9,1.16-3.24,1.45
		C323.89,255.43,324.98,255.21,325.83,254.69z"/>
	<path fill="#8B8B8B" d="M333.12,237.12c-0.01-0.28-0.01-0.56-0.02-0.84c0.65-1.16,1.56-1.96,2.95-2.06c0,0-0.04-0.05-0.04-0.05
		C335.31,235.42,334.35,236.4,333.12,237.12z"/>
	<path fill="#676767" d="M301.09,406.52c0.39,0.23,0.78,0.45,1.18,0.68c0.01,0.65,0.32,1.75-0.73,1.49
		C300.66,408.48,300.95,407.33,301.09,406.52z"/>
	<path fill="#161616" d="M297.24,358.04c-0.94,0.54-1.8,0.54-2.78,0.03C295.42,357.39,296.28,357.46,297.24,358.04z"/>
	<path fill="#616161" d="M285.65,346.35c-0.5,0.04-0.63-0.27-0.43-0.62c0.22-0.39,0.56-0.73,0.91-1.01c0.07-0.06,0.67,0.3,0.66,0.45
		C286.77,345.86,286.22,346.14,285.65,346.35z"/>
	<path fill="#8C8C8C" d="M256.66,258.67c-0.3,0.96-0.89,1.36-1.93,1.45C255.04,259.07,255.61,258.65,256.66,258.67z"/>
	<path fill="#111111" d="M284.04,299.9c-0.71-0.5-3.14,1.51-2.15-1.48C283.11,298.18,283.64,298.95,284.04,299.9z"/>
	<path fill="#888888" d="M303.05,352.59c-0.44-0.49-0.88-0.98-1.31-1.47c-0.12-1.12,0.77-1.27,1.5-1.56c0,0-0.05-0.05-0.05-0.05
		C303.14,350.54,303.1,351.56,303.05,352.59z"/>
	<path fill="#272727" d="M293.04,360.46c0.91,0.63,1.58,1.35,1.18,1.94c-0.62,0.91-1.2,0.4-1.32-0.54
		C292.86,361.52,292.97,361.16,293.04,360.46z"/>
	<path fill="#707070" d="M305.52,344.69c0.56,0.19,0.96,0.62,0.96,1.26c0,0.44-0.45,0.5-0.73,0.29c-0.35-0.26-0.73-0.61-0.89-1
		C304.7,344.85,305.03,344.62,305.52,344.69z"/>
	<path fill="#777777" d="M336.02,286.78c0.26,0.27,0.52,0.54,0.78,0.8c-0.04,0.13-0.07,0.26-0.09,0.39
		c-0.65,0.15-1.58,0.65-1.88,0.03C334.49,287.32,335.39,286.99,336.02,286.78z"/>
	<path fill="#A4A4A4" d="M261.64,269.41c0.03,0.13,0.03,0.26,0,0.39c-0.79,0-1.57,0-2.76,0C260,269.04,260.83,269.3,261.64,269.41z"
		/>
	<path fill="#A4A4A4" d="M330.04,269.8c-0.03-0.13-0.03-0.26,0-0.39c0.79,0,1.57,0,2.76,0C331.69,270.18,330.85,269.91,330.04,269.8
		z"/>
	<path fill="#0F0F0F" d="M301,361.73c0.07,0.6-0.14,0.91-0.55,0.77c-0.23-0.08-0.49-0.51-0.47-0.77c0.01-0.24,0.37-0.46,0.57-0.69
		C300.73,361.32,300.91,361.59,301,361.73z"/>
	<path fill="#1B1B1B" d="M298.47,360.74c0.36,0.73,0.57,1.71-0.16,1.93c-1.13,0.35-1.08-0.49-0.62-1.21
		C297.87,361.17,298.2,360.98,298.47,360.74z"/>
	<path fill="#777777" d="M254.85,287.61c0.27-0.28,0.54-0.55,0.81-0.83c0.64,0.21,1.37,0.44,1.19,1.24
		c-0.03,0.15-1.22,0.04-1.87,0.05C254.96,287.92,254.92,287.76,254.85,287.61z"/>
	<path fill="#D6D6D6" d="M288.4,406.77c-1.38-6.33-2.33-12.73-2.84-19.19c0.28-0.41,0.57-0.41,0.85,0
		c1.38,6.03,1.99,12.18,2.77,18.31C288.93,406.19,288.94,406.73,288.4,406.77z"/>
	<path fill="#C3C3C3" d="M286.41,387.58c-0.28,0-0.57,0-0.85,0c-0.77-4.8-1.55-9.59-2.32-14.39c0.29-0.55,0.59-1.1,0.88-1.65
		C284.88,376.89,285.64,382.24,286.41,387.58z"/>
	<path fill="#FCFCFC" d="M293.51,389.75c-0.35-0.71-0.71-1.41-1.06-2.12c-0.86-1.38,0.55-2.38,0.6-3.61
		c0.24,0.99,0.47,1.97,0.71,2.96C293.67,387.9,293.59,388.82,293.51,389.75z"/>
	<path fill="#FEFEFE" d="M288.4,406.77c0.26-0.29,0.51-0.59,0.77-0.88c0.06,0.67,0.12,1.34,0.18,2.01
		c-0.23,0.52-0.45,1.04-0.68,1.56C288.58,408.56,288.49,407.67,288.4,406.77z"/>
	<path fill="#E1E1E1" d="M304.62,397.12c-0.21-0.49-0.42-0.98-0.63-1.46c0.49-3.14,0.98-6.28,1.47-9.42c1.4-0.09,0.9,0.77,0.73,1.46
		C305.94,390.88,305.65,394.06,304.62,397.12z"/>
	<path fill="#8D8D8D" d="M306.19,387.7c-0.24-0.49-0.49-0.98-0.73-1.46c0.01-2.57,0.35-5.09,1.2-7.53c0.56-0.04,0.53,0.49,0.74,0.77
		C307.34,382.27,307,385.02,306.19,387.7z"/>
	<path fill="#D2D2D2" d="M307.4,379.48c-0.25-0.26-0.5-0.52-0.74-0.77c-0.06-2.2,0.22-4.35,0.88-6.45c0.3,0.29,0.59,0.59,0.89,0.88
		C308.09,375.25,307.75,377.36,307.4,379.48z"/>
	<path fill="#F8F8F8" d="M279.95,396.86c-0.89,1.41-2.24,1.79-3.78,1.67c-1.09-0.08-2.49-0.14-2.46-1.55
		c0.03-1.45,0.99-1.58,2.34-1.04c1.47,0.59,1.4-1.35,2.3-1.8C278.88,395.05,279.42,395.96,279.95,396.86z"/>
	<path fill="#F9F9F9" d="M313.29,394.11c0.98,0.77,1.33,2.77,3.33,1.51c0.49-0.31,1.13,0.34,1.32,0.96c0.27,0.85-0.18,1.5-0.95,1.67
		c-2.05,0.45-4.18,0.91-5.07-1.86C312.38,395.63,312.83,394.87,313.29,394.11z"/>
	<path fill="#404040" d="M306.22,334.23c0.67,1.21,0.77,2.49,0.48,3.81C306.14,336.83,306.06,335.54,306.22,334.23z"/>
	<path fill="#E3E3E3" d="M365.4,322.83c-2.12,1.44-4.25,2.89-6.37,4.33c-0.17-0.24-0.33-0.48-0.5-0.72c2.1-1.45,4.21-2.91,6.31-4.36
		C365.03,322.33,365.21,322.58,365.4,322.83z"/>
	<path fill="#E7E7E7" d="M335.27,343.06c1.88-2.44,4.51-3.84,7.17-5.2c0.32-0.33,0.61-0.31,0.88,0.06
		C340.75,339.81,338.33,341.93,335.27,343.06z"/>
	<path fill="#E5E5E5" d="M346.99,335.02c-0.02-0.26-0.04-0.52-0.06-0.78c2.1-1.37,4.21-2.74,6.31-4.11
		C351.74,332.59,349.54,334.04,346.99,335.02z"/>
	<path fill="#C6C6C6" d="M367.55,320.22c1.36-0.79,1.88-2.25,3.15-1.14c0.27,0.24,0.43,1.09,0.25,1.27
		C370.04,321.29,369.04,320.74,367.55,320.22z"/>
	<path fill="#E8E8E8" d="M343.32,337.91c-0.29-0.02-0.59-0.04-0.88-0.06c1.3-1.31,2.69-2.47,4.57-2.87
		C346.22,336.52,344.7,337.12,343.32,337.91z"/>
	<path fill="#8F8F8F" d="M300.25,336.5c-1.98-2.89-2.23-6.38-3.34-9.58C299.4,329.63,299.78,333.08,300.25,336.5z"/>
	<path fill="#E4E4E4" d="M259.32,344.49c-0.32,0.03-0.64,0.06-0.96,0.08c-1.12-0.56-2.24-1.12-3.35-1.67
		c-6.4-5.11-13.72-8.96-19.82-14.48c4.84,2.06,8.78,5.53,13.11,8.38C252.04,339.26,255.65,341.92,259.32,344.49z"/>
	<path fill="#E4E4E4" d="M225.36,321.83c3.84,1.38,7.04,3.71,9.86,6.62C231.5,326.88,228.37,324.44,225.36,321.83z"/>
	<path fill="#E4E4E4" d="M223.53,319.65c0.03,0.26,0.06,0.52,0.09,0.78c-0.12,0.02-0.25,0.07-0.35,0.04
		c-0.86-0.23-1.87,1.06-2.56-0.2c-0.16-0.28,0.08-1.03,0.37-1.28C222.14,318.1,222.68,319.5,223.53,319.65z"/>
	<path fill="#E8E8E8" d="M318.44,355.67c-0.26-0.29-0.51-0.57-0.77-0.86c4.19-3.38,8.42-6.68,13.39-8.88
		c-2.69,3.07-6.48,4.67-9.6,7.15C320.43,353.9,319.45,354.8,318.44,355.67z"/>
</g>
</svg>
